<svg width="29" height="22" viewBox="0 0 29 22" fill="none" xmlns="http://www.w3.org/2000/svg">
<path d="M26 0.5H25.5V1V2.04167C25.5 2.10927 25.4426 2.16667 25.375 2.16667H23.2917C23.2241 2.16667 23.1667 2.10927 23.1667 2.04167V1V0.5H22.6667H6H5.5V1V2.04167C5.5 2.10927 5.44261 2.16667 5.375 2.16667H3.29167C3.22406 2.16667 3.16667 2.10927 3.16667 2.04167V1V0.5H2.66667H2.25C1.28115 0.5 0.5 1.28115 0.5 2.25V19.75C0.5 20.7189 1.28115 21.5 2.25 21.5H2.66667H3.16667V21V19.9583C3.16667 19.8907 3.22406 19.8333 3.29167 19.8333H5.375C5.44261 19.8333 5.5 19.8907 5.5 19.9583V21V21.5H6H22.6667H23.1667V21V19.9583C23.1667 19.8907 23.2241 19.8333 23.2917 19.8333H25.375C25.4426 19.8333 25.5 19.8907 25.5 19.9583V21V21.5H26H26.4167C27.3855 21.5 28.1667 20.7189 28.1667 19.75V2.25C28.1667 1.28115 27.3855 0.5 26.4167 0.5H26ZM5.5 17.0417C5.5 17.1093 5.44261 17.1667 5.375 17.1667H3.29167C3.22406 17.1667 3.16667 17.1093 3.16667 17.0417V14.9583C3.16667 14.8907 3.22406 14.8333 3.29167 14.8333H5.375C5.44261 14.8333 5.5 14.8907 5.5 14.9583V17.0417ZM5.5 12.0417C5.5 12.1093 5.44261 12.1667 5.375 12.1667H3.29167C3.22406 12.1667 3.16667 12.1093 3.16667 12.0417V9.95833C3.16667 9.89073 3.22406 9.83333 3.29167 9.83333H5.375C5.44261 9.83333 5.5 9.89073 5.5 9.95833V12.0417ZM5.5 7.04167C5.5 7.10927 5.44261 7.16667 5.375 7.16667H3.29167C3.22406 7.16667 3.16667 7.10927 3.16667 7.04167V4.95833C3.16667 4.89073 3.22406 4.83333 3.29167 4.83333H5.375C5.44261 4.83333 5.5 4.89073 5.5 4.95833V7.04167ZM19.6667 17.875C19.6667 17.9426 19.6093 18 19.5417 18H9.125C9.05739 18 9 17.9426 9 17.875V12.875C9 12.8074 9.05739 12.75 9.125 12.75H19.5417C19.6093 12.75 19.6667 12.8074 19.6667 12.875V17.875ZM19.6667 9.125C19.6667 9.19261 19.6093 9.25 19.5417 9.25H9.125C9.05739 9.25 9 9.19261 9 9.125V4.125C9 4.05739 9.05739 4 9.125 4H19.5417C19.6093 4 19.6667 4.05739 19.6667 4.125V9.125ZM25.5 17.0417C25.5 17.1093 25.4426 17.1667 25.375 17.1667H23.2917C23.2241 17.1667 23.1667 17.1093 23.1667 17.0417V14.9583C23.1667 14.8907 23.2241 14.8333 23.2917 14.8333H25.375C25.4426 14.8333 25.5 14.8907 25.5 14.9583V17.0417ZM25.5 12.0417C25.5 12.1093 25.4426 12.1667 25.375 12.1667H23.2917C23.2241 12.1667 23.1667 12.1093 23.1667 12.0417V9.95833C23.1667 9.89073 23.2241 9.83333 23.2917 9.83333H25.375C25.4426 9.83333 25.5 9.89073 25.5 9.95833V12.0417ZM25.5 7.04167C25.5 7.10927 25.4426 7.16667 25.375 7.16667H23.2917C23.2241 7.16667 23.1667 7.10927 23.1667 7.04167V4.95833C23.1667 4.89073 23.2241 4.83333 23.2917 4.83333H25.375C25.4426 4.83333 25.5 4.89073 25.5 4.95833V7.04167Z" stroke="white"/>
</svg>
