<svg width="22" height="22" viewBox="0 0 22 22" fill="none" xmlns="http://www.w3.org/2000/svg">
<path d="M5.50033 20.1667C4.99616 20.1667 4.56441 19.987 4.20508 19.6277C3.84574 19.2683 3.66638 18.8369 3.66699 18.3333V9.16667C3.66699 8.6625 3.84666 8.23075 4.20599 7.87142C4.56533 7.51208 4.99677 7.33272 5.50033 7.33334H6.41699V5.5C6.41699 4.23195 6.86402 3.15089 7.75808 2.25684C8.65213 1.36278 9.73288 0.916057 11.0003 0.916669C12.2684 0.916669 13.3494 1.3637 14.2435 2.25775C15.1375 3.15181 15.5843 4.23256 15.5837 5.5V7.33334H16.5003C17.0045 7.33334 17.4362 7.513 17.7956 7.87234C18.1549 8.23167 18.3343 8.66311 18.3337 9.16667V18.3333C18.3337 18.8375 18.154 19.2693 17.7947 19.6286C17.4353 19.9879 17.0039 20.1673 16.5003 20.1667H5.50033ZM5.50033 18.3333H16.5003V9.16667H5.50033V18.3333ZM11.0003 15.5833C11.5045 15.5833 11.9362 15.4037 12.2956 15.0443C12.6549 14.685 12.8343 14.2536 12.8337 13.75C12.8337 13.2458 12.654 12.8141 12.2947 12.4548C11.9353 12.0954 11.5039 11.9161 11.0003 11.9167C10.4962 11.9167 10.0644 12.0963 9.70508 12.4557C9.34574 12.815 9.16638 13.2464 9.16699 13.75C9.16699 14.2542 9.34666 14.6859 9.70599 15.0453C10.0653 15.4046 10.4968 15.5839 11.0003 15.5833ZM8.25033 7.33334H13.7503V5.5C13.7503 4.73611 13.483 4.08681 12.9482 3.55209C12.4135 3.01736 11.7642 2.75 11.0003 2.75C10.2364 2.75 9.58713 3.01736 9.05241 3.55209C8.51769 4.08681 8.25033 4.73611 8.25033 5.5V7.33334Z" fill="#999999"/>
</svg>
