<svg width="29" height="27" viewBox="0 0 29 27" fill="none" xmlns="http://www.w3.org/2000/svg">
<path d="M19.8491 20.2443C19.5399 20.2427 19.2429 20.3592 19.0232 20.568C18.8036 20.7768 18.6794 21.0609 18.6779 21.3577C18.6764 21.6546 18.7978 21.9399 19.0154 22.1509C19.233 22.3618 19.5289 22.4812 19.838 22.4827L22.1693 22.4943C22.4785 22.4958 22.7755 22.3793 22.9952 22.1705C23.2148 21.9617 23.339 21.6776 23.3405 21.3808L23.4179 5.71144C23.4194 5.4146 23.298 5.12931 23.0804 4.91833C22.8629 4.70735 22.567 4.58797 22.2578 4.58644L19.9265 4.57492C19.6174 4.57339 19.3203 4.68985 19.1007 4.89866C18.881 5.10748 18.7568 5.39156 18.7553 5.6884C18.7539 5.98524 18.8753 6.27053 19.0928 6.48151C19.3104 6.69249 19.6063 6.81187 19.9155 6.8134L21.0811 6.81916L21.0147 20.25L19.8491 20.2443Z" fill="#CDCDCD" fill-opacity="0.5"/>
<path d="M3.76995 14.0983L7.03495 18.5915C7.21202 18.8337 7.48173 18.9988 7.78509 19.0506C8.08846 19.1024 8.40082 19.0368 8.65387 18.8682C8.78036 18.784 8.88821 18.6765 8.97121 18.5521C9.0542 18.4276 9.1107 18.2886 9.13743 18.143C9.16416 17.9975 9.16059 17.8483 9.12694 17.704C9.09329 17.5598 9.03022 17.4234 8.94137 17.3026L6.94984 14.5841L7.05475 14.5847L16.3799 14.6307C16.6891 14.6323 16.9861 14.5158 17.2058 14.307C17.4254 14.0982 17.5496 13.8141 17.5511 13.5173C17.5526 13.2204 17.4312 12.9351 17.2136 12.7242C16.996 12.5132 16.7001 12.3938 16.391 12.3923L7.06581 12.3462L9.17725 9.67038C9.26968 9.55325 9.33717 9.41978 9.37586 9.27758C9.41455 9.13539 9.4237 8.98726 9.40277 8.84165C9.38184 8.69604 9.33125 8.5558 9.25388 8.42894C9.17652 8.30208 9.07389 8.19109 8.95187 8.10229C8.75082 7.956 8.5058 7.87624 8.25359 7.87499C8.07262 7.87409 7.89395 7.91367 7.73171 7.99058C7.56947 8.06748 7.42812 8.17961 7.31886 8.31808L3.79979 12.7778C3.64957 12.9663 3.56571 13.1959 3.56035 13.4333C3.55499 13.6707 3.62839 13.9036 3.76995 14.0983V14.0983Z" fill="#CDCDCD" fill-opacity="0.5"/>
</svg>
