<svg width="158" height="53" viewBox="0 0 158 53" fill="none" xmlns="http://www.w3.org/2000/svg">
<path d="M26.24 23.96C27.92 23.96 29.3733 24.2933 30.6 24.96C31.8533 25.6 32.8267 26.5867 33.52 27.92C34.2133 29.2267 34.56 30.8533 34.56 32.8V45H32.56V32.96C32.56 30.6133 31.9867 28.8267 30.84 27.6C29.6933 26.3733 28.0933 25.76 26.04 25.76C24.4667 25.76 23.1067 26.0933 21.96 26.76C20.8133 27.4267 19.9333 28.36 19.32 29.56C18.7067 30.76 18.4 32.2 18.4 33.88V45H16.4V32.96C16.4 30.6133 15.8267 28.8267 14.68 27.6C13.5333 26.3733 11.9333 25.76 9.88 25.76C8.30667 25.76 6.94667 26.0933 5.8 26.76C4.65333 27.4267 3.77333 28.36 3.16 29.56C2.54667 30.76 2.24 32.2 2.24 33.88V45H0.24V24.12H2.16V29.88L1.88 29.24C2.49333 27.6133 3.52 26.3333 4.96 25.4C6.4 24.44 8.13333 23.96 10.16 23.96C12.24 23.96 13.9867 24.4933 15.4 25.56C16.84 26.6 17.7467 28.16 18.12 30.24L17.44 29.96C18 28.1733 19.0533 26.7333 20.6 25.64C22.1467 24.52 24.0267 23.96 26.24 23.96ZM41.9475 52.92C40.9875 52.92 40.0808 52.76 39.2275 52.44C38.4008 52.12 37.6942 51.6533 37.1075 51.04L38.1075 49.52C38.6408 50.08 39.2142 50.4933 39.8275 50.76C40.4675 51.0267 41.1875 51.16 41.9875 51.16C42.9475 51.16 43.7875 50.8933 44.5075 50.36C45.2542 49.8267 45.9475 48.8533 46.5875 47.44L48.0275 44.24L48.3075 43.88L57.1475 24.12H59.1875L48.4675 47.84C47.9075 49.12 47.2942 50.12 46.6275 50.84C45.9875 51.5867 45.2808 52.12 44.5075 52.44C43.7342 52.76 42.8808 52.92 41.9475 52.92ZM47.9875 45.52L38.3075 24.12H40.4275L49.2275 43.76L47.9875 45.52Z" fill="white"/>
<path d="M65.3363 45V0.199997H72.1843L91.7683 32.904H88.1843L107.448 0.199997H114.296L114.36 45H106.488L106.424 12.552H108.088L91.7043 39.88H87.9923L71.3523 12.552H73.2723V45H65.3363ZM134.781 45L120.125 10.824H128.445L141.053 40.968H136.957L150.013 10.824H157.693L143.037 45H134.781Z" fill="#7B86E9"/>
</svg>
