<svg width="98" height="33" viewBox="0 0 98 33" fill="none" xmlns="http://www.w3.org/2000/svg">
<path d="M16.144 15.376C17.152 15.376 18.024 15.576 18.76 15.976C19.512 16.36 20.096 16.952 20.512 17.752C20.928 18.536 21.136 19.512 21.136 20.68V28H19.936V20.776C19.936 19.368 19.592 18.296 18.904 17.56C18.216 16.824 17.256 16.456 16.024 16.456C15.08 16.456 14.264 16.656 13.576 17.056C12.888 17.456 12.36 18.016 11.992 18.736C11.624 19.456 11.44 20.32 11.44 21.328V28H10.24V20.776C10.24 19.368 9.896 18.296 9.208 17.56C8.52 16.824 7.56 16.456 6.328 16.456C5.384 16.456 4.568 16.656 3.88 17.056C3.192 17.456 2.664 18.016 2.296 18.736C1.928 19.456 1.744 20.32 1.744 21.328V28H0.544V15.472H1.696V18.928L1.528 18.544C1.896 17.568 2.512 16.8 3.376 16.24C4.24 15.664 5.28 15.376 6.496 15.376C7.744 15.376 8.792 15.696 9.64 16.336C10.504 16.96 11.048 17.896 11.272 19.144L10.864 18.976C11.2 17.904 11.832 17.04 12.76 16.384C13.688 15.712 14.816 15.376 16.144 15.376ZM25.5685 32.752C24.9925 32.752 24.4485 32.656 23.9365 32.464C23.4405 32.272 23.0165 31.992 22.6645 31.624L23.2645 30.712C23.5845 31.048 23.9285 31.296 24.2965 31.456C24.6805 31.616 25.1125 31.696 25.5925 31.696C26.1685 31.696 26.6725 31.536 27.1045 31.216C27.5525 30.896 27.9685 30.312 28.3525 29.464L29.2165 27.544L29.3845 27.328L34.6885 15.472H35.9125L29.4805 29.704C29.1445 30.472 28.7765 31.072 28.3765 31.504C27.9925 31.952 27.5685 32.272 27.1045 32.464C26.6405 32.656 26.1285 32.752 25.5685 32.752ZM29.1925 28.312L23.3845 15.472H24.6565L29.9365 27.256L29.1925 28.312Z" fill="white"/>
<path d="M39.7522 28V-1.90735e-06H44.0322L56.2722 20.44H54.0322L66.0722 -1.90735e-06H70.3522L70.3922 28H65.4722L65.4322 7.72H66.4722L56.2322 24.8H53.9122L43.5122 7.72H44.7122V28H39.7522ZM83.1553 28L73.9953 6.64H79.1953L87.0753 25.48H84.5153L92.6753 6.64H97.4753L88.3153 28H83.1553Z" fill="#7B86E9"/>
</svg>
