<svg width="93" height="93" viewBox="0 0 93 93" fill="none" xmlns="http://www.w3.org/2000/svg">
<rect width="93" height="93" rx="15" fill="#18202B"/>
<path d="M21.12 47.48C21.96 47.48 22.6867 47.6467 23.3 47.98C23.9267 48.3 24.4133 48.7933 24.76 49.46C25.1067 50.1133 25.28 50.9267 25.28 51.9V58H24.28V51.98C24.28 50.8067 23.9933 49.9133 23.42 49.3C22.8467 48.6867 22.0467 48.38 21.02 48.38C20.2333 48.38 19.5533 48.5467 18.98 48.88C18.4067 49.2133 17.9667 49.68 17.66 50.28C17.3533 50.88 17.2 51.6 17.2 52.44V58H16.2V51.98C16.2 50.8067 15.9133 49.9133 15.34 49.3C14.7667 48.6867 13.9667 48.38 12.94 48.38C12.1533 48.38 11.4733 48.5467 10.9 48.88C10.3267 49.2133 9.88667 49.68 9.58 50.28C9.27333 50.88 9.12 51.6 9.12 52.44V58H8.12V47.56H9.08V50.44L8.94 50.12C9.24667 49.3067 9.76 48.6667 10.48 48.2C11.2 47.72 12.0667 47.48 13.08 47.48C14.12 47.48 14.9933 47.7467 15.7 48.28C16.42 48.8 16.8733 49.58 17.06 50.62L16.72 50.48C17 49.5867 17.5267 48.8667 18.3 48.32C19.0733 47.76 20.0133 47.48 21.12 47.48ZM28.9738 61.96C28.4938 61.96 28.0404 61.88 27.6138 61.72C27.2004 61.56 26.8471 61.3267 26.5537 61.02L27.0537 60.26C27.3204 60.54 27.6071 60.7467 27.9138 60.88C28.2338 61.0133 28.5938 61.08 28.9938 61.08C29.4738 61.08 29.8938 60.9467 30.2538 60.68C30.6271 60.4133 30.9738 59.9267 31.2938 59.22L32.0138 57.62L32.1538 57.44L36.5738 47.56H37.5938L32.2337 59.42C31.9538 60.06 31.6471 60.56 31.3138 60.92C30.9938 61.2933 30.6404 61.56 30.2538 61.72C29.8671 61.88 29.4404 61.96 28.9738 61.96ZM31.9938 58.26L27.1538 47.56H28.2138L32.6138 57.38L31.9938 58.26Z" fill="white"/>
<path d="M40.6682 58V35.6H44.0922L53.8842 51.952H52.0922L61.7242 35.6H65.1482L65.1802 58H61.2442L61.2122 41.776H62.0442L53.8522 55.44H51.9962L43.6762 41.776H44.6362V58H40.6682ZM75.3907 58L68.0627 40.912H72.2227L78.5267 55.984H76.4787L83.0067 40.912H86.8467L79.5187 58H75.3907Z" fill="#7B86E9"/>
</svg>
