<svg width="22" height="22" viewBox="0 0 22 22" fill="none" xmlns="http://www.w3.org/2000/svg">
<path d="M13.75 14.6667L10.0833 18.3333H19.25V14.6667H13.75ZM11.055 6.59084L2.75 14.8958V18.3333H6.1875L14.4925 10.0283L11.055 6.59084ZM5.42667 16.5H4.58333V15.6567L11.055 9.18501L11.8983 10.0283L5.42667 16.5ZM17.1508 7.37001C17.2358 7.2852 17.3032 7.18447 17.3492 7.07358C17.3952 6.96269 17.4189 6.84381 17.4189 6.72376C17.4189 6.6037 17.3952 6.48483 17.3492 6.37393C17.3032 6.26304 17.2358 6.16231 17.1508 6.07751L15.0058 3.93251C14.834 3.762 14.6017 3.66632 14.3596 3.66632C14.1175 3.66632 13.8852 3.762 13.7133 3.93251L12.0358 5.61001L15.4733 9.04751L17.1508 7.37001Z" fill="#999999"/>
</svg>
