<svg width="20" height="22" viewBox="0 0 20 22" fill="none" xmlns="http://www.w3.org/2000/svg">
<path d="M12.5977 11.75H12.4883L12.3889 11.7957C11.5844 12.1653 10.6906 12.375 9.75 12.375C8.80984 12.375 7.91958 12.1655 7.11032 11.7953L7.01127 11.75H6.90234H6.25C3.07542 11.75 0.5 14.3254 0.5 17.5V19.125C0.5 20.4363 1.5637 21.5 2.875 21.5H16.625C17.9363 21.5 19 20.4363 19 19.125V17.5C19 14.3254 16.4246 11.75 13.25 11.75H12.5977ZM9.75 11.5C12.7879 11.5 15.25 9.03786 15.25 6C15.25 2.96214 12.7879 0.5 9.75 0.5C6.71214 0.5 4.25 2.96214 4.25 6C4.25 9.03786 6.71214 11.5 9.75 11.5Z" stroke="white"/>
</svg>
