<svg width="87" height="87" viewBox="0 0 87 87" fill="none" xmlns="http://www.w3.org/2000/svg">
<circle cx="43.5" cy="43.5" r="43.5" fill="#555555"/>
<path d="M43.5 44C50.6016 44 56.3571 38.4043 56.3571 31.5C56.3571 24.5957 50.6016 19 43.5 19C36.3984 19 30.6429 24.5957 30.6429 31.5C30.6429 38.4043 36.3984 44 43.5 44ZM52.5 47.125H50.8225C48.5926 48.1211 46.1116 48.6875 43.5 48.6875C40.8884 48.6875 38.4174 48.1211 36.1775 47.125H34.5C27.0469 47.125 21 53.0039 21 60.25V64.3125C21 66.9004 23.1596 69 25.8214 69H61.1786C63.8404 69 66 66.9004 66 64.3125V60.25C66 53.0039 59.9531 47.125 52.5 47.125Z" fill="#CFCFCF"/>
</svg>
