<svg width="184" height="181" viewBox="0 0 184 181" fill="none" xmlns="http://www.w3.org/2000/svg">
<rect y="24" width="175" height="157" rx="25" fill="white" fill-opacity="0.94"/>
<g clip-path="url(#clip0_86_353)">
<path d="M18.2248 161.092C16.5484 167.203 19.1502 173.451 19.1502 173.451C19.1502 173.451 24.4701 169.791 26.1465 163.68C27.8229 157.569 25.2211 151.321 25.2211 151.321C25.2211 151.321 19.9013 154.981 18.2248 161.092Z" fill="#F2F2F2"/>
<path d="M20.7703 161.257C22.1813 167.448 19.3128 173.555 19.3128 173.555C19.3128 173.555 14.1567 169.626 12.7457 163.435C11.3348 157.245 14.2033 151.137 14.2033 151.137C14.2033 151.137 19.3593 155.067 20.7703 161.257Z" fill="#F2F2F2"/>
<path d="M104.619 167.404L105.686 164.409L95.6073 158.492L94.0325 162.913L104.619 167.404Z" fill="#FFB8B8"/>
<path d="M110.337 159.59C109.884 159.398 109.402 159.305 108.916 159.317C108.431 159.328 107.953 159.444 107.508 159.657C107.064 159.871 106.663 160.178 106.327 160.56C105.992 160.943 105.729 161.394 105.553 161.888L104.833 163.907L103.723 167.024L103.452 167.788L107.008 169.298L110.449 159.639L110.337 159.59Z" fill="#2F2E41"/>
<path d="M103.724 161.64L103.26 162.983L102.101 166.335L102.074 166.419C99.1226 166.833 95.8876 166.022 92.8955 164.761C91.6983 164.257 90.5258 163.686 89.3825 163.051C87.6905 162.118 86.1754 161.133 84.9667 160.291C83.1469 159.016 82.0217 158.059 82.0217 158.059C82.0217 158.059 81.7244 158.352 81.1865 158.855C80.4655 159.528 79.3134 160.579 77.8541 161.817C77.2974 162.292 76.6997 162.789 76.061 163.309C71.3526 167.12 65.3103 156.95 65.3103 156.95C65.3103 156.95 67.0097 155.77 67.4536 155.54C68.8832 154.802 72.2415 153.061 75.1389 151.513C76.6317 150.714 78.0003 149.966 78.9191 149.434C82.173 147.543 86.2177 151.12 86.2177 151.12L103.724 161.64Z" fill="#2F2E41"/>
<path opacity="0.14" d="M103.724 161.64L103.26 162.983L102.101 166.335L102.074 166.419C99.1226 166.833 95.8876 166.022 92.8955 164.761C91.6983 164.257 90.5258 163.686 89.3825 163.051C87.6905 162.118 86.1754 161.133 84.9667 160.291C83.1469 159.016 82.0217 158.059 82.0217 158.059C82.0217 158.059 81.7244 158.352 81.1865 158.855C80.4655 159.528 79.3134 160.579 77.8541 161.817C77.2974 162.292 76.6997 162.789 76.061 163.309C71.3526 167.12 65.3103 156.95 65.3103 156.95C65.3103 156.95 67.0097 155.77 67.4536 155.54C68.8832 154.802 72.2415 153.061 75.1389 151.513C76.6317 150.714 78.0003 149.966 78.9191 149.434C82.173 147.543 86.2177 151.12 86.2177 151.12L103.724 161.64Z" fill="black"/>
<path d="M44.0973 90.3379C66.9568 90.3379 85.4881 70.1151 85.4881 45.1689C85.4881 20.2228 66.9568 0 44.0973 0C21.2378 0 2.70654 20.2228 2.70654 45.1689C2.70654 70.1151 21.2378 90.3379 44.0973 90.3379Z" fill="white"/>
<path opacity="0.2" d="M13.5356 14.9996C9.6748 24.8552 9.15106 35.8877 12.058 46.1259C14.9649 56.3641 21.1131 65.1406 29.4039 70.8873C37.6947 76.634 47.5879 78.9763 57.3155 77.4958C67.0432 76.0152 75.9715 70.8081 82.505 62.8051C80.1465 68.8264 76.6166 74.2162 72.1598 78.601C67.7031 82.9858 62.426 86.2607 56.6943 88.199C50.9626 90.1372 44.9133 90.6924 38.9654 89.826C33.0176 88.9597 27.3134 86.6925 22.2482 83.1816C17.183 79.6707 12.8778 75 9.6309 69.4931C6.38401 63.9862 4.27306 57.7748 3.44431 51.2892C2.61555 44.8036 3.08881 38.199 4.8313 31.9328C6.57378 25.6666 9.54382 19.8888 13.5356 14.9996Z" fill="black"/>
<path d="M44.211 45.1687H44.3248L46.3717 173.23H42.0505L44.211 45.1687Z" fill="#3F3D56"/>
<path d="M37.8393 103.248L36.8857 105.224L43.7278 109.155L44.6813 107.179L37.8393 103.248Z" fill="#3F3D56"/>
<path d="M183.76 173.74H0.240209C0.176502 173.74 0.115403 173.712 0.0703554 173.663C0.0253075 173.614 0 173.547 0 173.478C0 173.408 0.0253075 173.342 0.0703554 173.292C0.115403 173.243 0.176502 173.216 0.240209 173.216H183.76C183.823 173.216 183.885 173.243 183.93 173.292C183.975 173.342 184 173.408 184 173.478C184 173.547 183.975 173.614 183.93 173.663C183.885 173.712 183.823 173.74 183.76 173.74Z" fill="#3F3D56"/>
<path d="M56.6283 133.447H42.6962C42.4096 133.446 42.1348 133.322 41.9322 133.101C41.7295 132.88 41.6156 132.58 41.6152 132.267V125.714C41.6152 123.385 42.463 121.151 43.9721 119.504C45.4812 117.857 47.528 116.932 49.6622 116.932C51.7964 116.932 53.8432 117.857 55.3523 119.504C56.8614 121.151 57.7092 123.385 57.7092 125.714V132.267C57.7089 132.58 57.5949 132.88 57.3923 133.101C57.1896 133.322 56.9149 133.446 56.6283 133.447Z" fill="#2F2E41"/>
<path d="M69.8775 141.678C69.5532 141.74 69.2453 141.879 68.9755 142.086C68.7057 142.292 68.4806 142.56 68.3161 142.871C68.1515 143.182 68.0515 143.529 68.0231 143.887C67.9946 144.245 68.0385 144.605 68.1515 144.943L64.363 148.745L65.919 151.821L71.1999 146.37C71.7069 146.125 72.114 145.686 72.3441 145.135C72.5741 144.585 72.6112 143.961 72.4482 143.383C72.2851 142.805 71.9334 142.312 71.4597 141.998C70.9859 141.683 70.4229 141.57 69.8775 141.678Z" fill="#FFB8B8"/>
<path d="M58.4784 158.967C58.3072 158.967 58.1359 158.958 57.9642 158.942C56.9422 158.849 55.9587 158.474 55.1059 157.853C54.253 157.231 53.5589 156.384 53.0886 155.389L47.0191 142.641C46.6214 141.805 46.5341 140.835 46.7754 139.931C47.0167 139.027 47.568 138.26 48.3146 137.788C49.0611 137.317 49.9456 137.178 50.7839 137.399C51.6222 137.621 52.3498 138.188 52.8153 138.98L58.4148 152.691L66.034 145.935L70.4457 147.809L62.9953 156.785C62.4226 157.471 61.7251 158.019 60.9474 158.395C60.1697 158.771 59.3288 158.965 58.4784 158.967V158.967Z" fill="#CCCCCC"/>
<path d="M80.9295 139.268L74.1792 131.902C73.9431 131.644 73.6228 131.5 73.2889 131.5C72.9549 131.5 72.6347 131.644 72.3985 131.902L66.3261 138.529C66.0899 138.786 65.9573 139.136 65.9573 139.5C65.9573 139.865 66.0899 140.214 66.3261 140.472L72.6331 147.355C72.858 147.6 73.1597 147.744 73.4776 147.756C73.7955 147.769 74.1059 147.65 74.3466 147.423L80.8623 141.28C80.9874 141.162 81.0901 141.018 81.1643 140.857C81.2385 140.696 81.2829 140.52 81.295 140.34C81.307 140.16 81.2864 139.979 81.2345 139.808C81.1825 139.637 81.1001 139.478 80.992 139.342C80.972 139.317 80.9511 139.292 80.9295 139.268Z" fill="#3F3D56"/>
<path d="M79.9741 140.56L73.0258 132.978L67.2917 139.235L73.9703 146.523L79.9741 140.56Z" fill="#F2F2F2"/>
<path d="M73.5183 142.767C75.0766 142.767 76.3398 141.389 76.3398 139.688C76.3398 137.988 75.0766 136.609 73.5183 136.609C71.96 136.609 70.6968 137.988 70.6968 139.688C70.6968 141.389 71.96 142.767 73.5183 142.767Z" fill="white"/>
<path opacity="0.1" d="M74.7741 142.312C75.2461 141.828 75.5512 141.182 75.6381 140.482C75.7249 139.781 75.5884 139.069 75.2513 138.466C74.9143 137.862 74.3972 137.404 73.7869 137.167C73.1767 136.93 72.5104 136.93 71.8999 137.166C72.2297 136.914 72.6051 136.742 73.001 136.661C73.3968 136.581 73.8038 136.594 74.1947 136.699C74.5856 136.804 74.9513 137 75.2673 137.272C75.5832 137.545 75.8421 137.888 76.0265 138.278C76.2109 138.669 76.3165 139.098 76.3363 139.537C76.3561 139.976 76.2896 140.414 76.1413 140.823C75.9929 141.231 75.7662 141.6 75.4763 141.905C75.1864 142.21 74.84 142.444 74.4605 142.59C74.5709 142.506 74.6757 142.413 74.7741 142.312Z" fill="black"/>
<path d="M72.131 139.076C71.7945 139.421 71.7767 140.663 72.2905 141.26C72.8042 141.857 73.655 141.582 73.9915 141.237C74.3279 140.892 74.0227 140.607 73.5089 140.01C72.9952 139.414 72.4675 138.731 72.131 139.076Z" fill="#F2F2F2"/>
<path d="M74.9954 140.651C75.4571 140.651 75.8314 140.242 75.8314 139.738C75.8314 139.234 75.4571 138.826 74.9954 138.826C74.5337 138.826 74.1594 139.234 74.1594 139.738C74.1594 140.242 74.5337 140.651 74.9954 140.651Z" fill="#2F2E41"/>
<path d="M73.4927 138.905C73.9544 138.905 74.3287 138.497 74.3287 137.993C74.3287 137.489 73.9544 137.081 73.4927 137.081C73.031 137.081 72.6567 137.489 72.6567 137.993C72.6567 138.497 73.031 138.905 73.4927 138.905Z" fill="#2F2E41"/>
<path d="M74.9954 139.966C75.1108 139.966 75.2044 139.864 75.2044 139.738C75.2044 139.612 75.1108 139.51 74.9954 139.51C74.8799 139.51 74.7864 139.612 74.7864 139.738C74.7864 139.864 74.8799 139.966 74.9954 139.966Z" fill="#F2F2F2"/>
<path d="M75.0855 139.291C75.1432 139.291 75.19 139.24 75.19 139.177C75.19 139.114 75.1432 139.062 75.0855 139.062C75.0277 139.062 74.981 139.114 74.981 139.177C74.981 139.24 75.0277 139.291 75.0855 139.291Z" fill="#F2F2F2"/>
<path d="M73.5825 137.545C73.6402 137.545 73.687 137.494 73.687 137.431C73.687 137.368 73.6402 137.317 73.5825 137.317C73.5248 137.317 73.478 137.368 73.478 137.431C73.478 137.494 73.5248 137.545 73.5825 137.545Z" fill="#F2F2F2"/>
<path d="M73.4927 138.221C73.6081 138.221 73.7017 138.119 73.7017 137.993C73.7017 137.867 73.6081 137.765 73.4927 137.765C73.3773 137.765 73.2837 137.867 73.2837 137.993C73.2837 138.119 73.3773 138.221 73.4927 138.221Z" fill="#F2F2F2"/>
<path d="M103.768 171.617L105.043 168.72L95.4101 161.976L93.5286 166.251L103.768 171.617Z" fill="#FFB8B8"/>
<path d="M110.019 164.306C109.581 164.076 109.106 163.943 108.622 163.914C108.137 163.885 107.652 163.96 107.194 164.135C106.736 164.311 106.314 164.583 105.953 164.937C105.591 165.29 105.297 165.718 105.087 166.196L104.227 168.149L102.901 171.163L102.577 171.902L106.017 173.706L110.127 164.363L110.019 164.306Z" fill="#2F2E41"/>
<path d="M103.281 165.795L102.723 167.095L101.332 170.34L101.299 170.421C98.3275 170.586 95.1592 169.506 92.2646 167.999C91.1065 167.396 89.9776 166.729 88.8825 165.999C87.2611 164.927 85.8198 163.818 84.674 162.877C82.9493 161.454 81.8948 160.405 81.8948 160.405C81.8948 160.405 81.5778 160.672 81.006 161.129C80.2398 161.739 79.0171 162.691 77.475 163.802C76.8865 164.23 76.2555 164.675 75.5821 165.139C70.6194 168.544 63.5621 172.691 57.5592 173.567C47.0165 175.106 49.4978 159.752 49.4978 159.752L57.8883 154.997L61.4506 155.786L65.4165 156.662L66.8217 156.974C66.8217 156.974 67.0883 156.864 67.5471 156.672C69.0244 156.056 72.4954 154.601 75.4932 153.301C77.0378 152.63 78.455 151.998 79.4086 151.545C82.7859 149.933 86.5669 153.839 86.5669 153.839L103.281 165.795Z" fill="#2F2E41"/>
<path d="M34.1445 173.933C34.4655 173.853 34.7664 173.697 35.026 173.476C35.2857 173.255 35.4978 172.974 35.6474 172.654C35.797 172.334 35.8804 171.982 35.8919 171.623C35.9033 171.264 35.8424 170.906 35.7136 170.576L39.3168 166.565L37.6172 163.581L32.6016 169.323C32.1069 169.596 31.7212 170.058 31.5175 170.62C31.3138 171.183 31.3064 171.808 31.4966 172.376C31.6867 172.944 32.0613 173.417 32.5494 173.704C33.0374 173.991 33.605 174.073 34.1445 173.933L34.1445 173.933Z" fill="#FFB8B8"/>
<path d="M51.6347 133.739C54.7372 133.739 57.2523 130.995 57.2523 127.609C57.2523 124.223 54.7372 121.479 51.6347 121.479C48.5322 121.479 46.0171 124.223 46.0171 127.609C46.0171 130.995 48.5322 133.739 51.6347 133.739Z" fill="#FFB8B8"/>
<path d="M44.3264 144.626L49.2199 159.766L49.1905 159.819C48.5099 161.047 48.2875 162.037 48.5473 162.683C48.6158 162.847 48.7161 162.993 48.8412 163.111C48.9664 163.229 49.1135 163.316 49.2724 163.366L60.8526 154.533L60.4471 150.992L60.4697 150.953C61.589 148.998 61.9514 147.229 61.547 145.692C61.0223 143.699 59.355 142.794 59.3382 142.785L59.2979 142.751L53.5221 135.079L45.8013 136.576L44.3264 144.626Z" fill="#CCCCCC"/>
<path d="M36.8849 171.2L33.6067 166.797L41.5094 152.561L45.1939 140.132L45.3082 140.173L45.1939 140.132C45.3952 139.453 45.7275 138.829 46.1684 138.302C46.6094 137.775 47.1487 137.358 47.7501 137.077C48.3515 136.797 49.001 136.661 49.6547 136.678C50.3084 136.694 50.9513 136.864 51.5399 137.175C52.1285 137.486 52.6492 137.931 53.067 138.48C53.4847 139.029 53.7897 139.669 53.9614 140.358C54.1332 141.046 54.1677 141.767 54.0626 142.471C53.9575 143.176 53.7153 143.847 53.3523 144.441L46.5881 155.5L36.8849 171.2Z" fill="#CCCCCC"/>
<path d="M59.613 126.369H51.0939L51.0065 125.034L50.5697 126.369H49.258L49.0848 123.724L48.2191 126.369H45.6809V126.238C45.6828 124.396 46.3541 122.631 47.5474 121.328C48.7407 120.026 50.3587 119.294 52.0464 119.292H53.2475C54.9351 119.294 56.5531 120.026 57.7465 121.328C58.9399 122.631 59.6111 124.396 59.613 126.238V126.369Z" fill="#2F2E41"/>
<path d="M51.0241 134.67C50.96 134.67 50.896 134.664 50.8328 134.652L44.5947 133.451V122.2H51.4617L51.2917 122.416C48.9263 125.427 50.7083 130.308 51.9811 132.95C52.0749 133.143 52.1167 133.362 52.1018 133.58C52.0868 133.798 52.0156 134.008 51.8965 134.184C51.7967 134.334 51.6656 134.457 51.5139 134.541C51.3623 134.626 51.1944 134.67 51.0241 134.67V134.67Z" fill="#2F2E41"/>
<path d="M141.276 114.996C156.4 114.996 168.66 101.617 168.66 85.1125C168.66 68.6083 156.4 55.2291 141.276 55.2291C126.152 55.2291 113.892 68.6083 113.892 85.1125C113.892 101.617 126.152 114.996 141.276 114.996Z" fill="#3F3D56"/>
<path d="M134.275 73.4969V98.9217C134.269 99.0395 134.292 99.1568 134.342 99.2613C134.392 99.3658 134.468 99.4536 134.56 99.5154C134.652 99.5772 134.757 99.6107 134.865 99.6124C134.973 99.6141 135.08 99.584 135.173 99.5251L153.641 86.8127C153.732 86.7469 153.806 86.6578 153.857 86.5533C153.908 86.4488 153.935 86.3321 153.935 86.2135C153.935 86.095 153.908 85.9783 153.857 85.8738C153.806 85.7692 153.732 85.6801 153.641 85.6143L135.173 72.9019C135.081 72.8413 134.975 72.8095 134.866 72.8099C134.758 72.8102 134.652 72.8427 134.56 72.904C134.467 72.9652 134.392 73.0527 134.342 73.1572C134.292 73.2617 134.269 73.3792 134.275 73.4969V73.4969Z" fill="#F2F2F2"/>
</g>
<defs>
<clipPath id="clip0_86_353">
<rect width="184" height="174" fill="white"/>
</clipPath>
</defs>
</svg>
