<svg width="270" height="299" viewBox="0 0 270 299" fill="none" xmlns="http://www.w3.org/2000/svg">
<g clip-path="url(#clip0_28_292)">
<path d="M250.869 79.4376V62.6497H248.618V79.4376C247.973 79.7405 247.438 80.2944 247.106 81.0044C246.774 81.7143 246.665 82.5362 246.798 83.329C246.931 84.1219 247.297 84.8364 247.835 85.3501C248.372 85.8638 249.047 86.1447 249.744 86.1447C250.44 86.1447 251.115 85.8638 251.652 85.3501C252.19 84.8364 252.556 84.1219 252.689 83.329C252.822 82.5362 252.713 81.7143 252.381 81.0044C252.049 80.2944 251.514 79.7405 250.869 79.4376Z" fill="#E6E6E6"/>
<path d="M256.121 248.859H240.741V32.195H234.739V248.859H219.359C217.536 248.859 215.731 249.275 214.047 250.084C212.363 250.893 210.833 252.079 209.544 253.573C208.256 255.068 207.233 256.843 206.536 258.796C205.838 260.749 205.479 262.842 205.479 264.956V264.956H270V264.956C270 262.842 269.641 260.749 268.943 258.796C268.246 256.843 267.224 255.068 265.935 253.573C264.646 252.079 263.116 250.893 261.432 250.084C259.748 249.275 257.943 248.859 256.121 248.859Z" fill="#E6E6E6"/>
<path d="M205.51 64.39H269.969L266.027 7.24808C265.883 5.27771 265.108 3.4412 263.856 2.09986C262.603 0.758511 260.963 0.00943663 259.258 0H216.222C214.517 0.00943772 212.876 0.758511 211.624 2.09986C210.371 3.4412 209.596 5.27771 209.452 7.24808L205.51 64.39Z" fill="white"/>
<path d="M22.9189 199.059H219.661V175.763C219.661 112.852 175.532 61.6708 121.29 61.6708C67.0483 61.6708 22.9189 112.852 22.9189 175.763V199.059Z" fill="#3F3D56"/>
<path opacity="0.2" d="M22.9189 199.059H219.661V175.763C219.661 112.852 175.532 61.6708 121.29 61.6708C67.0483 61.6708 22.9189 112.852 22.9189 175.763V199.059Z" fill="black"/>
<path d="M48.4176 207.123H199.828C199.684 197.884 196.421 189.079 190.74 182.601C185.059 176.122 177.413 172.488 169.446 172.477H78.8C70.8328 172.488 63.187 176.122 57.5059 182.601C51.8247 189.079 48.5615 197.884 48.4176 207.123Z" fill="white"/>
<path d="M30.3869 203.539C47.1692 203.539 60.7739 187.76 60.7739 168.296C60.7739 148.832 47.1692 133.053 30.3869 133.053C13.6047 133.053 0 148.832 0 168.296C0 187.76 13.6047 203.539 30.3869 203.539Z" fill="#3F3D56"/>
<path d="M214.769 203.539C231.551 203.539 245.156 187.76 245.156 168.296C245.156 148.832 231.551 133.053 214.769 133.053C197.986 133.053 184.382 148.832 184.382 168.296C184.382 187.76 197.986 203.539 214.769 203.539Z" fill="#3F3D56"/>
<path d="M191.85 186.216V199.357H51.5033V186.216H20.0863V250.268C20.0863 254.192 21.4305 257.956 23.8231 260.731C26.2157 263.506 29.4608 265.065 32.8445 265.065H210.508C212.184 265.065 213.843 264.682 215.391 263.938C216.939 263.195 218.345 262.105 219.53 260.731C220.715 259.357 221.654 257.726 222.296 255.93C222.937 254.135 223.267 252.211 223.267 250.268V186.216H191.85Z" fill="#3F3D56"/>
<path opacity="0.2" d="M30.3869 175.464C33.8003 175.464 36.5673 172.255 36.5673 168.296C36.5673 164.337 33.8003 161.128 30.3869 161.128C26.9736 161.128 24.2065 164.337 24.2065 168.296C24.2065 172.255 26.9736 175.464 30.3869 175.464Z" fill="black"/>
<path opacity="0.2" d="M214.769 175.464C218.182 175.464 220.949 172.255 220.949 168.296C220.949 164.337 218.182 161.128 214.769 161.128C211.355 161.128 208.588 164.337 208.588 168.296C208.588 172.255 211.355 175.464 214.769 175.464Z" fill="black"/>
<path d="M132.484 57.6449C132.484 57.6449 133.092 71.0339 137.345 73.8527C141.598 76.6714 137.345 95.6979 137.345 95.6979L117.294 96.4026L116.079 73.8527C116.079 73.8527 118.51 64.6917 117.294 60.4636C116.079 56.2355 132.484 57.6449 132.484 57.6449Z" fill="#FFB8B8"/>
<path d="M154.965 243.682L147.674 253.548L159.218 266.232L165.294 252.138L154.965 243.682Z" fill="#FFB8B8"/>
<path d="M103.32 243.682L110.611 253.548L99.0666 266.232L92.9908 252.138L103.32 243.682Z" fill="#FFB8B8"/>
<path d="M151.016 150.311C151.016 150.311 194.762 167.224 192.332 183.431C189.901 199.639 171.066 256.719 171.066 256.719C171.066 256.719 160.737 256.719 152.838 244.034L158.307 229.941C158.307 229.941 155.876 222.189 160.129 220.78C164.383 219.37 166.813 194.706 166.813 194.706C166.813 194.706 135.826 191.888 129.142 178.499L116.991 144.674L151.016 150.311Z" fill="#2F2E41"/>
<path d="M107.269 150.311C107.269 150.311 63.5228 167.224 65.9532 183.431C68.3835 199.639 87.2188 256.719 87.2188 256.719C87.2188 256.719 97.5478 256.719 105.446 244.034L99.9782 229.941C99.9782 229.941 102.409 222.189 98.1554 220.78C93.9023 219.37 91.4719 194.706 91.4719 194.706C91.4719 194.706 122.459 191.888 129.142 178.499L141.294 144.674L107.269 150.311Z" fill="#2F2E41"/>
<path d="M157.091 260.947C157.091 260.947 163.167 254.605 163.775 259.538C164.383 264.47 163.167 284.202 163.167 284.202C163.167 284.202 169.243 299 160.129 299C151.016 299 146.762 287.725 147.978 276.45C149.193 265.175 143.725 260.947 143.725 260.947C143.725 260.947 137.041 245.444 143.725 244.034C150.408 242.625 152.838 246.148 152.838 246.148C152.838 246.148 150.408 258.833 157.091 260.947Z" fill="#2F2E41"/>
<path d="M101.193 260.947C101.193 260.947 95.1175 254.605 94.5099 259.538C93.9023 264.47 95.1175 284.202 95.1175 284.202C95.1175 284.202 89.0416 299 98.1554 299C107.269 299 111.522 287.725 110.307 276.45C109.092 265.175 114.56 260.947 114.56 260.947C114.56 260.947 121.244 245.444 114.56 244.034C107.877 242.625 105.446 246.148 105.446 246.148C105.446 246.148 107.877 258.833 101.193 260.947Z" fill="#2F2E41"/>
<path d="M123.067 65.7488C130.784 65.7488 137.041 58.4923 137.041 49.541C137.041 40.5897 130.784 33.3332 123.067 33.3332C115.349 33.3332 109.092 40.5897 109.092 49.541C109.092 58.4923 115.349 65.7488 123.067 65.7488Z" fill="#FFB8B8"/>
<path d="M125.193 77.3761L116.687 69.6245L96.0288 80.8995L95.4212 145.026C95.4212 145.026 82.6619 152.073 86.3074 161.234C86.3074 161.234 97.244 164.053 102.105 169.69C106.965 175.328 134.307 167.576 145.851 163.348C157.395 159.12 160.433 154.187 160.433 154.187L148.889 135.16L155.573 86.537L134.917 70.4304L125.193 77.3761Z" fill="#E6E6E6"/>
<path d="M140.056 38.5096C139.752 38.0304 139.473 37.5296 139.223 37.01C138.79 35.786 139.474 34.3436 138.835 33.2006C138.182 32.0339 136.524 31.7878 135.397 30.9952C133.659 29.7742 133.344 27.3782 131.716 26.0326C130.543 25.0631 128.871 24.8018 127.304 24.8571C125.737 24.9124 124.191 25.241 122.623 25.277C120.507 25.3318 118.407 24.8338 116.48 23.8199L117.636 26.4438C116.351 26.1189 115.123 25.5417 114.006 24.7371C113.494 25.4729 114.43 26.5898 113.85 27.2801C113.612 27.5027 113.331 27.654 113.031 27.7207C110.8 28.4559 108.699 29.6444 106.827 31.2309C106.393 31.5507 106.035 31.9898 105.783 32.5091C105.482 33.2839 105.749 34.1397 105.726 34.9635C105.685 36.4604 104.699 37.7658 104 39.1143C103.301 40.4628 102.923 42.2111 103.96 43.3556C104.213 43.5881 104.454 43.8354 104.685 44.0967C105.724 45.5181 103.885 47.5998 104.771 49.1082C105.156 49.7632 105.945 50.0946 106.631 50.4815C107.944 51.1937 109.049 52.3359 109.81 53.7675L109.277 49.2305C109.249 49.1184 109.244 49.0002 109.262 48.8855C109.28 48.7707 109.322 48.6625 109.383 48.5696C109.641 48.2645 110.181 48.3861 110.538 48.184C110.93 47.9617 110.959 47.4517 110.944 47.0245L110.824 43.7305C110.77 42.2493 110.755 42.0526 111.696 40.857C112.353 40.0217 113.386 39.5177 114.425 39.147C116.797 38.3 119.349 38.0071 121.872 37.7208C124.801 37.3883 128.1 35.7398 130.375 37.4901C132.237 38.9228 132.856 41.2779 133.753 43.3665C134.56 45.2439 136.63 50.7714 138.353 47.7793C139.435 45.9002 141.09 40.6018 140.056 38.5096Z" fill="#2F2E41"/>
<path d="M125.466 44.8393C125.408 44.8394 125.353 44.8659 125.312 44.9131C125.271 44.9603 125.248 45.0243 125.248 45.0911V51.8769C125.248 51.9437 125.271 52.0076 125.312 52.0548C125.353 52.102 125.408 52.1286 125.466 52.1286H135.537C135.595 52.1286 135.65 52.102 135.691 52.0548C135.732 52.0076 135.755 51.9437 135.755 51.8769V45.0911C135.755 45.0243 135.732 44.9603 135.691 44.9131C135.65 44.8659 135.595 44.8394 135.537 44.8393L125.466 44.8393Z" fill="#3F3D56"/>
<path d="M126.591 45.4378C126.484 45.4379 126.381 45.4874 126.305 45.5754C126.229 45.6634 126.187 45.7826 126.186 45.907V51.0609C126.187 51.1853 126.229 51.3046 126.305 51.3926C126.381 51.4806 126.484 51.5301 126.591 51.5302H134.412C134.519 51.5301 134.622 51.4806 134.698 51.3926C134.774 51.3046 134.816 51.1853 134.816 51.0609V45.907C134.816 45.7826 134.774 45.6634 134.698 45.5754C134.622 45.4874 134.519 45.4379 134.412 45.4378H126.591Z" fill="#FF6584"/>
<path d="M125.579 47.0746H120.332V48.484H125.579V47.0746Z" fill="#3F3D56"/>
<path d="M111.203 44.8393C111.146 44.8394 111.09 44.866 111.05 44.9132C111.009 44.9604 110.986 45.0243 110.986 45.0911V51.8769C110.986 51.9436 111.009 52.0076 111.05 52.0548C111.09 52.102 111.146 52.1285 111.203 52.1286H121.275C121.333 52.1285 121.388 52.102 121.429 52.0548C121.469 52.0076 121.492 51.9436 121.492 51.8769V45.0911C121.492 45.0243 121.469 44.9604 121.429 44.9132C121.388 44.866 121.333 44.8394 121.275 44.8393L111.203 44.8393Z" fill="#3F3D56"/>
<path d="M112.329 45.4378C112.222 45.4379 112.119 45.4873 112.043 45.5753C111.967 45.6633 111.924 45.7826 111.924 45.907V51.0609C111.924 51.1854 111.967 51.3047 112.043 51.3927C112.119 51.4806 112.222 51.5301 112.329 51.5302H120.149C120.257 51.5301 120.36 51.4806 120.435 51.3927C120.511 51.3047 120.554 51.1854 120.554 51.0609V45.907C120.554 45.7826 120.511 45.6633 120.435 45.5753C120.36 45.4873 120.257 45.4379 120.149 45.4378H112.329Z" fill="white"/>
<path d="M105.697 129.541H140.584C141.976 129.541 143.312 130.183 144.297 131.325C145.282 132.468 145.835 134.017 145.835 135.632H100.446C100.446 134.017 100.999 132.468 101.984 131.325C102.969 130.183 104.305 129.541 105.697 129.541Z" fill="#3F3D56"/>
<path d="M143.022 129.106C142.818 129.107 142.615 129.147 142.422 129.225C142.356 128.916 142.194 128.646 141.968 128.465C141.742 128.285 141.467 128.207 141.194 128.246C140.922 128.285 140.671 128.438 140.49 128.677C140.308 128.915 140.208 129.223 140.208 129.541C140.208 129.548 140.21 129.554 140.21 129.56C140.069 129.576 139.93 129.609 139.796 129.66C139.758 129.484 139.689 129.32 139.593 129.176C139.497 129.033 139.377 128.915 139.24 128.828C139.6 128.597 139.886 128.235 140.052 127.798C140.262 127.822 140.475 127.795 140.677 127.717C140.878 127.64 141.062 127.514 141.219 127.348C141.375 127.182 141.5 126.98 141.584 126.754C141.668 126.529 141.711 126.285 141.709 126.039C141.707 125.793 141.66 125.551 141.571 125.328C141.483 125.104 141.355 124.905 141.196 124.743C141.037 124.581 140.85 124.459 140.647 124.386C140.445 124.314 140.231 124.291 140.021 124.32C139.817 124.322 139.614 124.362 139.421 124.439C139.386 124.268 139.322 124.107 139.232 123.965C139.142 123.824 139.029 123.705 138.898 123.615C138.768 123.526 138.623 123.469 138.473 123.446C138.322 123.424 138.17 123.437 138.024 123.485C137.878 123.532 137.742 123.614 137.624 123.724C137.506 123.835 137.409 123.972 137.338 124.127C137.267 124.282 137.224 124.453 137.211 124.628C137.199 124.803 137.217 124.979 137.264 125.146C137.22 125.182 137.178 125.223 137.136 125.263C136.924 125.051 136.648 124.945 136.369 124.967C136.224 124.487 135.939 124.08 135.562 123.819C135.186 123.559 134.742 123.46 134.309 123.54C133.876 123.621 133.481 123.875 133.193 124.259C132.906 124.644 132.744 125.133 132.736 125.642C132.586 125.656 132.437 125.69 132.294 125.744C132.278 125.671 132.256 125.599 132.229 125.529C132.377 125.378 132.496 125.192 132.578 124.984C132.66 124.775 132.704 124.55 132.706 124.32C132.68 123.831 132.487 123.373 132.171 123.047C131.855 122.721 131.44 122.553 131.018 122.58C130.814 122.581 130.611 122.621 130.418 122.699C130.383 122.528 130.319 122.366 130.229 122.225C130.14 122.083 130.026 121.964 129.895 121.875C129.765 121.786 129.62 121.728 129.47 121.706C129.319 121.683 129.167 121.696 129.021 121.744C128.875 121.792 128.739 121.874 128.621 121.984C128.504 122.094 128.406 122.231 128.335 122.387C128.264 122.542 128.221 122.712 128.208 122.887C128.196 123.063 128.214 123.239 128.262 123.406C128.025 123.596 127.83 123.847 127.691 124.139C127.552 124.431 127.473 124.756 127.46 125.089C127.444 125.105 127.426 125.119 127.411 125.136C127.439 125.012 127.453 124.884 127.454 124.756C127.428 124.266 127.236 123.808 126.92 123.482C126.603 123.156 126.189 122.988 125.766 123.015C125.562 123.016 125.359 123.056 125.166 123.134C125.132 122.963 125.068 122.801 124.978 122.66C124.888 122.518 124.774 122.399 124.644 122.31C124.513 122.221 124.368 122.164 124.218 122.141C124.068 122.118 123.915 122.132 123.769 122.179C123.624 122.227 123.488 122.309 123.37 122.419C123.252 122.53 123.154 122.667 123.083 122.822C123.012 122.977 122.969 123.147 122.957 123.323C122.944 123.498 122.962 123.674 123.01 123.841C122.761 124.04 122.557 124.307 122.417 124.618C122.276 124.929 122.203 125.275 122.203 125.626C122.203 125.977 122.276 126.323 122.417 126.633C122.557 126.944 122.761 127.211 123.01 127.411C122.934 127.663 122.934 127.939 123.01 128.191C122.822 128.344 122.659 128.534 122.53 128.753C122.46 128.461 122.305 128.206 122.09 128.033C121.876 127.86 121.616 127.78 121.355 127.806C121.095 127.832 120.851 127.963 120.665 128.176C120.479 128.389 120.364 128.671 120.339 128.973C120.188 128.871 120.026 128.795 119.856 128.747C120.16 128.514 120.399 128.185 120.545 127.798C120.756 127.822 120.969 127.795 121.17 127.717C121.371 127.64 121.556 127.514 121.712 127.348C121.869 127.182 121.993 126.98 122.078 126.754C122.162 126.529 122.205 126.285 122.203 126.039C122.2 125.793 122.154 125.551 122.065 125.328C121.977 125.104 121.849 124.905 121.689 124.743C121.53 124.581 121.343 124.459 121.141 124.386C120.938 124.314 120.725 124.291 120.515 124.32C120.31 124.322 120.108 124.362 119.915 124.439C119.88 124.268 119.816 124.107 119.726 123.965C119.636 123.824 119.523 123.705 119.392 123.615C119.261 123.526 119.117 123.469 118.966 123.446C118.816 123.424 118.663 123.437 118.518 123.485C118.372 123.532 118.236 123.614 118.118 123.724C118 123.835 117.903 123.972 117.832 124.127C117.761 124.282 117.718 124.453 117.705 124.628C117.692 124.803 117.71 124.979 117.758 125.146C117.734 125.165 117.712 125.188 117.689 125.209C117.631 125.203 117.574 125.191 117.514 125.191C117.309 125.192 117.107 125.232 116.914 125.309C116.907 125.276 116.895 125.246 116.886 125.214C116.922 125.02 116.919 124.82 116.877 124.627C116.835 124.435 116.756 124.257 116.644 124.106C116.533 123.956 116.393 123.838 116.236 123.761C116.078 123.683 115.908 123.65 115.737 123.662C115.639 123.346 115.48 123.061 115.272 122.829C115.063 122.597 114.811 122.424 114.536 122.323C114.26 122.223 113.968 122.197 113.682 122.25C113.397 122.302 113.126 122.43 112.89 122.623C112.654 122.817 112.46 123.072 112.323 123.367C112.186 123.662 112.11 123.99 112.101 124.325C112.091 124.66 112.149 124.993 112.269 125.298C112.389 125.603 112.568 125.872 112.792 126.083C112.663 126.1 112.536 126.133 112.412 126.179C112.368 125.967 112.278 125.771 112.151 125.61C112.024 125.45 111.864 125.328 111.685 125.259C111.507 125.189 111.316 125.172 111.131 125.211C110.946 125.25 110.772 125.342 110.626 125.479C110.459 125.249 110.25 125.065 110.014 124.94C109.778 124.814 109.52 124.752 109.261 124.756C109.057 124.757 108.854 124.797 108.661 124.874C108.626 124.703 108.562 124.542 108.472 124.4C108.383 124.259 108.269 124.14 108.138 124.051C108.008 123.961 107.863 123.904 107.713 123.881C107.563 123.859 107.41 123.872 107.264 123.92C107.118 123.967 106.982 124.049 106.864 124.159C106.747 124.27 106.649 124.407 106.578 124.562C106.507 124.717 106.464 124.888 106.451 125.063C106.439 125.238 106.457 125.414 106.505 125.581C106.256 125.781 106.052 126.047 105.911 126.358C105.771 126.669 105.697 127.015 105.697 127.366C105.697 127.373 105.699 127.379 105.699 127.386C105.433 127.339 105.161 127.373 104.91 127.484C104.875 127.313 104.811 127.152 104.721 127.011C104.631 126.869 104.518 126.75 104.387 126.661C104.257 126.572 104.112 126.514 103.962 126.492C103.811 126.469 103.659 126.482 103.513 126.53C103.367 126.578 103.231 126.659 103.113 126.77C102.995 126.88 102.898 127.017 102.827 127.172C102.756 127.328 102.713 127.498 102.7 127.673C102.688 127.848 102.706 128.025 102.753 128.191C102.392 128.475 102.127 128.898 102.006 129.384C101.885 129.871 101.914 130.392 102.09 130.856C102.265 131.32 102.576 131.698 102.967 131.924C103.358 132.15 103.804 132.21 104.23 132.094C104.297 132.548 104.488 132.965 104.774 133.285C105.06 133.604 105.426 133.81 105.82 133.872C106.213 133.934 106.614 133.849 106.963 133.63C107.312 133.41 107.591 133.067 107.761 132.65C109.112 132.854 110.483 132.782 111.813 132.439C111.937 132.851 112.166 133.21 112.468 133.469C112.771 133.728 113.135 133.875 113.511 133.891C113.887 133.906 114.258 133.79 114.576 133.557C114.894 133.323 115.144 132.984 115.294 132.584C115.567 132.577 115.836 132.5 116.08 132.358C116.252 132.709 116.504 132.997 116.809 133.191C117.114 133.384 117.459 133.475 117.806 133.454C118.153 133.432 118.488 133.298 118.773 133.068C119.058 132.837 119.282 132.519 119.42 132.149C119.837 132.057 120.269 132.137 120.64 132.376C121.011 132.615 121.299 132.998 121.452 133.457C121.703 133.059 122.026 132.729 122.398 132.49C122.77 132.251 123.183 132.109 123.607 132.074C123.984 132.196 124.385 132.174 124.75 132.012C125.116 131.85 125.427 131.557 125.638 131.174C125.52 131.704 125.579 132.266 125.802 132.748C126.026 133.23 126.398 133.596 126.844 133.774C127.29 133.952 127.778 133.928 128.209 133.707C128.641 133.487 128.985 133.085 129.173 132.584C129.447 132.577 129.715 132.5 129.96 132.358C130.131 132.709 130.383 132.997 130.688 133.191C130.993 133.384 131.338 133.475 131.686 133.454C132.033 133.432 132.368 133.298 132.653 133.068C132.938 132.837 133.162 132.519 133.299 132.149C133.573 132.142 133.842 132.065 134.086 131.923C134.218 132.195 134.4 132.431 134.618 132.614C134.837 132.797 135.087 132.923 135.352 132.982C135.616 133.042 135.889 133.034 136.15 132.959C136.412 132.884 136.657 132.743 136.867 132.548C136.932 132.964 137.101 133.349 137.352 133.655C137.604 133.961 137.927 134.175 138.282 134.271C138.638 134.367 139.009 134.339 139.351 134.193C139.694 134.046 139.991 133.787 140.208 133.446C140.433 133.646 140.694 133.784 140.972 133.849C141.25 133.914 141.537 133.905 141.812 133.822C142.086 133.738 142.341 133.584 142.556 133.369C142.771 133.155 142.941 132.886 143.052 132.584C143.263 132.608 143.476 132.58 143.677 132.503C143.879 132.425 144.063 132.299 144.22 132.133C144.376 131.968 144.5 131.765 144.585 131.54C144.669 131.314 144.712 131.071 144.71 130.825C144.708 130.579 144.661 130.337 144.572 130.113C144.484 129.89 144.356 129.691 144.197 129.528C144.037 129.366 143.85 129.245 143.648 129.172C143.446 129.099 143.232 129.077 143.022 129.106L143.022 129.106ZM109.494 128.208C109.492 128.219 109.491 128.23 109.489 128.24C109.475 128.24 109.462 128.236 109.449 128.236C109.393 128.238 109.337 128.244 109.281 128.256C109.284 128.248 109.289 128.241 109.292 128.233C109.36 128.229 109.427 128.221 109.494 128.208ZM125.166 127.484C125.161 127.459 125.152 127.436 125.145 127.411C125.431 127.181 125.657 126.863 125.797 126.493C126.044 126.491 126.287 126.429 126.512 126.311C126.737 126.193 126.937 126.022 127.101 125.808C127.087 125.891 127.079 125.976 127.079 126.061C127.081 126.194 127.1 126.325 127.136 126.451C126.814 126.712 126.57 127.082 126.439 127.511C126.031 127.327 125.58 127.318 125.166 127.484V127.484ZM136.401 127.647C136.401 127.62 136.403 127.592 136.402 127.566C136.45 127.566 136.498 127.562 136.545 127.555C136.618 127.836 136.739 128.098 136.902 128.323C136.867 128.334 136.83 128.341 136.795 128.355C136.735 128.075 136.596 127.826 136.401 127.647Z" fill="#F9A825"/>
<path d="M104.224 131.717C103.692 131.717 103.166 131.842 102.677 132.086C102.188 132.33 101.747 132.687 101.381 133.134C101.015 133.582 100.732 134.112 100.548 134.691C100.364 135.27 100.285 135.887 100.313 136.503L102.853 177.015C102.907 178.176 103.342 179.269 104.07 180.069C104.798 180.869 105.762 181.314 106.764 181.314H139.516C140.519 181.314 141.483 180.869 142.211 180.069C142.939 179.269 143.374 178.176 143.428 177.015L145.968 136.503C145.996 135.887 145.916 135.27 145.733 134.691C145.549 134.112 145.266 133.582 144.9 133.134C144.534 132.687 144.093 132.33 143.604 132.086C143.115 131.842 142.589 131.717 142.057 131.717H104.224Z" fill="#3F3D56"/>
<path d="M108.323 131.717H106.073V181.314H108.323V131.717Z" fill="white"/>
<path d="M114.7 131.717H112.45V181.314H114.7V131.717Z" fill="white"/>
<path d="M121.077 131.717H118.827V181.314H121.077V131.717Z" fill="white"/>
<path d="M127.454 131.717H125.204V181.314H127.454V131.717Z" fill="white"/>
<path d="M133.831 131.717H131.581V181.314H133.831V131.717Z" fill="white"/>
<path d="M140.208 131.717H137.958V181.314H140.208V131.717Z" fill="white"/>
<path d="M137.952 156.301L130.661 161.234C130.661 161.234 113.041 178.146 125.193 180.965C137.345 183.784 140.383 168.985 140.383 168.985L144.636 163.348L137.952 156.301Z" fill="#FFB8B8"/>
<path d="M103.32 152.778L110.611 157.71C110.611 157.71 128.231 174.623 116.079 177.442C103.927 180.26 100.889 165.462 100.889 165.462L96.6364 159.824L103.32 152.778Z" fill="#FFB8B8"/>
<path d="M147.674 85.8323L155.573 86.537C155.573 86.537 161.648 92.8792 161.041 101.335C161.041 101.335 166.509 119.657 165.294 127.409C165.294 127.409 166.509 140.093 164.686 145.026C162.864 149.959 147.674 168.985 147.674 168.985C147.674 168.985 133.699 156.301 134.307 155.596L152.535 134.456L143.421 120.362L147.674 85.8323Z" fill="#E6E6E6"/>
<path d="M96.0288 80.8995L95.725 81.2519C95.725 81.2519 82.0543 87.9464 82.6619 96.4026C82.6619 96.4026 77.1936 114.724 78.4088 122.476C78.4088 122.476 77.1936 135.16 79.0163 140.093C80.8391 145.026 96.0288 164.053 96.0288 164.053C96.0288 164.053 110.003 151.368 109.396 150.664L91.1681 129.523L100.282 115.429L96.0288 80.8995Z" fill="#E6E6E6"/>
</g>
<defs>
<clipPath id="clip0_28_292">
<rect width="270" height="299" fill="white"/>
</clipPath>
</defs>
</svg>
