<svg width="150" height="150" viewBox="0 0 150 150" fill="none" xmlns="http://www.w3.org/2000/svg">
<g clip-path="url(#clip0_531_544)">
<path d="M76.3421 97.9182C89.7883 97.9182 100.689 87.0179 100.689 73.5717C100.689 60.1255 89.7883 49.2252 76.3421 49.2252C62.8959 49.2252 51.9956 60.1255 51.9956 73.5717C51.9956 87.0179 62.8959 97.9182 76.3421 97.9182Z" fill="#FFB6B6"/>
<path d="M62.3655 101.518L61.2656 90.4L83.2302 86.2929L96.2001 117.872L73.6437 143.812L57.5723 112.233L62.3655 101.518Z" fill="#FFB6B6"/>
<path d="M60.9128 95.9654L65.7148 97.0504C65.7148 97.0504 61.9399 85.0801 63.2212 83.9373C64.5025 82.7945 67.6423 84.5952 67.6423 84.5952L70.9417 88.2944L74.9607 84.2026C74.9607 84.2026 79.3239 78.7772 81.0323 77.2534C82.7407 75.7297 79.9966 70.0738 79.9966 70.0738C79.9966 70.0738 105.342 63.2395 95.911 50.9461C95.911 50.9461 90.3816 41.3076 88.5809 44.4474C86.7802 47.5872 84.6331 42.6006 84.6331 42.6006L78.0766 43.8474C78.0766 43.8474 65.1365 36.2176 52.8548 52.5399C40.5731 68.8623 60.9128 95.9654 60.9128 95.9654H60.9128V95.9654Z" fill="#2F2E41"/>
<path d="M122.132 133.351C108.826 144.138 92.3655 150 74.9999 150C59.1428 150 44.0385 145.111 31.4041 136.049C31.4266 135.812 31.4492 135.578 31.4689 135.344C31.8044 131.679 32.1033 128.115 32.3007 125.16C33.0648 113.687 59.8307 106.04 59.8307 106.04C59.8307 106.04 59.952 106.162 60.1945 106.373C61.6719 107.67 67.6691 112.373 78.186 113.687C87.5638 114.86 90.6512 109.297 91.5845 106.633C91.8665 105.82 91.9511 105.276 91.9511 105.276L119.481 118.277C121.277 120.843 121.979 126.369 122.117 132.581C122.123 132.837 122.129 133.091 122.132 133.351V133.351Z" fill="#9F8AC0"/>
<path d="M101.798 145.092C103.934 144.276 106.031 143.361 108.084 142.351L107.814 141.804M101.798 145.092L122.501 133.05C122.378 133.15 122.255 133.251 122.132 133.351C117.763 136.893 113.054 139.904 108.084 142.351L107.814 141.804M101.798 145.092L101.583 144.53M101.798 145.092L38.4276 139.816L38.1268 140.347C38.5734 140.6 39.0224 140.848 39.4738 141.091C39.4739 141.091 39.474 141.091 39.4741 141.091C42.5727 142.762 45.7816 144.208 49.0805 145.42L49.2873 144.86L49.0809 145.421C57.2706 148.43 66.0144 150 75 150C84.3082 150 93.3564 148.316 101.798 145.092L101.583 144.53M107.814 141.804C105.787 142.805 103.709 143.715 101.583 144.53M107.814 141.804L101.583 144.53" fill="white" stroke="white" stroke-width="2"/>
</g>
<defs>
<clipPath id="clip0_531_544">
<rect width="150" height="150" fill="white"/>
</clipPath>
</defs>
</svg>
