<svg width="274" height="299" viewBox="0 0 274 299" fill="none" xmlns="http://www.w3.org/2000/svg">
<rect y="44" width="262" height="212" rx="25" fill="white" fill-opacity="0.94"/>
<g clip-path="url(#clip0_44_19)">
<path d="M254.869 79.4376V62.6497H252.618V79.4376C251.973 79.7405 251.438 80.2944 251.106 81.0044C250.774 81.7143 250.665 82.5362 250.798 83.329C250.931 84.1219 251.297 84.8364 251.835 85.3501C252.372 85.8638 253.047 86.1447 253.744 86.1447C254.44 86.1447 255.115 85.8638 255.652 85.3501C256.19 84.8364 256.556 84.1219 256.689 83.329C256.822 82.5362 256.713 81.7143 256.381 81.0044C256.049 80.2944 255.514 79.7405 254.869 79.4376Z" fill="#E6E6E6"/>
<path d="M260.121 248.859H244.741V32.195H238.739V248.859H223.359C221.536 248.859 219.731 249.275 218.047 250.084C216.363 250.893 214.833 252.079 213.544 253.573C212.256 255.068 211.233 256.843 210.536 258.796C209.838 260.749 209.479 262.842 209.479 264.956V264.956H274V264.956C274 262.842 273.641 260.749 272.943 258.796C272.246 256.843 271.224 255.068 269.935 253.573C268.646 252.079 267.116 250.893 265.432 250.084C263.748 249.275 261.943 248.859 260.121 248.859V248.859Z" fill="#E6E6E6"/>
<path d="M209.51 64.39H273.969L270.027 7.24808C269.883 5.27771 269.108 3.4412 267.856 2.09986C266.603 0.758511 264.963 0.00943663 263.258 0H220.222C218.517 0.00943772 216.876 0.758511 215.624 2.09986C214.371 3.4412 213.596 5.27771 213.452 7.24808L209.51 64.39Z" fill="white"/>
<path d="M26.9189 199.059H223.661V175.763C223.661 112.852 179.532 61.6708 125.29 61.6708C71.0483 61.6708 26.9189 112.852 26.9189 175.763V199.059Z" fill="#3F3D56"/>
<path opacity="0.2" d="M26.9189 199.059H223.661V175.763C223.661 112.852 179.532 61.6708 125.29 61.6708C71.0483 61.6708 26.9189 112.852 26.9189 175.763V199.059Z" fill="black"/>
<path d="M52.4176 207.123H203.828C203.684 197.884 200.421 189.079 194.74 182.601C189.059 176.122 181.413 172.488 173.446 172.477H82.8C74.8328 172.488 67.187 176.122 61.5059 182.601C55.8247 189.079 52.5615 197.884 52.4176 207.123V207.123Z" fill="white"/>
<path d="M34.3869 203.539C51.1692 203.539 64.7739 187.76 64.7739 168.296C64.7739 148.832 51.1692 133.053 34.3869 133.053C17.6047 133.053 4 148.832 4 168.296C4 187.76 17.6047 203.539 34.3869 203.539Z" fill="#3F3D56"/>
<path d="M218.769 203.539C235.551 203.539 249.156 187.76 249.156 168.296C249.156 148.832 235.551 133.053 218.769 133.053C201.986 133.053 188.382 148.832 188.382 168.296C188.382 187.76 201.986 203.539 218.769 203.539Z" fill="#3F3D56"/>
<path d="M195.85 186.216V199.357H55.5033V186.216H24.0863V250.268C24.0863 254.192 25.4305 257.956 27.8231 260.731C30.2157 263.506 33.4608 265.065 36.8445 265.065H214.508C216.184 265.065 217.843 264.682 219.391 263.938C220.939 263.195 222.345 262.105 223.53 260.731C224.715 259.357 225.654 257.726 226.296 255.93C226.937 254.135 227.267 252.211 227.267 250.268V186.216H195.85Z" fill="#3F3D56"/>
<path opacity="0.2" d="M34.3869 175.464C37.8003 175.464 40.5673 172.255 40.5673 168.296C40.5673 164.337 37.8003 161.128 34.3869 161.128C30.9736 161.128 28.2065 164.337 28.2065 168.296C28.2065 172.255 30.9736 175.464 34.3869 175.464Z" fill="black"/>
<path opacity="0.2" d="M218.769 175.464C222.182 175.464 224.949 172.255 224.949 168.296C224.949 164.337 222.182 161.128 218.769 161.128C215.355 161.128 212.588 164.337 212.588 168.296C212.588 172.255 215.355 175.464 218.769 175.464Z" fill="black"/>
<path d="M136.484 57.6449C136.484 57.6449 137.092 71.0339 141.345 73.8527C145.598 76.6714 141.345 95.6979 141.345 95.6979L121.294 96.4026L120.079 73.8527C120.079 73.8527 122.51 64.6917 121.294 60.4636C120.079 56.2355 136.484 57.6449 136.484 57.6449Z" fill="#FFB8B8"/>
<path d="M158.965 243.682L151.674 253.548L163.218 266.232L169.294 252.138L158.965 243.682Z" fill="#FFB8B8"/>
<path d="M107.32 243.682L114.611 253.548L103.067 266.232L96.9908 252.138L107.32 243.682Z" fill="#FFB8B8"/>
<path d="M155.016 150.311C155.016 150.311 198.762 167.224 196.332 183.431C193.901 199.639 175.066 256.719 175.066 256.719C175.066 256.719 164.737 256.719 156.838 244.034L162.307 229.941C162.307 229.941 159.876 222.189 164.129 220.78C168.383 219.37 170.813 194.706 170.813 194.706C170.813 194.706 139.826 191.888 133.142 178.499L120.991 144.674L155.016 150.311Z" fill="#2F2E41"/>
<path d="M111.269 150.311C111.269 150.311 67.5228 167.224 69.9532 183.431C72.3835 199.639 91.2188 256.719 91.2188 256.719C91.2188 256.719 101.548 256.719 109.446 244.034L103.978 229.941C103.978 229.941 106.409 222.189 102.155 220.78C97.9023 219.37 95.4719 194.706 95.4719 194.706C95.4719 194.706 126.459 191.888 133.142 178.499L145.294 144.674L111.269 150.311Z" fill="#2F2E41"/>
<path d="M161.091 260.947C161.091 260.947 167.167 254.605 167.775 259.538C168.383 264.47 167.167 284.202 167.167 284.202C167.167 284.202 173.243 299 164.129 299C155.016 299 150.762 287.725 151.978 276.45C153.193 265.175 147.725 260.947 147.725 260.947C147.725 260.947 141.041 245.444 147.725 244.034C154.408 242.625 156.838 246.148 156.838 246.148C156.838 246.148 154.408 258.833 161.091 260.947Z" fill="#2F2E41"/>
<path d="M105.193 260.947C105.193 260.947 99.1175 254.605 98.5099 259.538C97.9023 264.47 99.1175 284.202 99.1175 284.202C99.1175 284.202 93.0416 299 102.155 299C111.269 299 115.522 287.725 114.307 276.45C113.092 265.175 118.56 260.947 118.56 260.947C118.56 260.947 125.244 245.444 118.56 244.034C111.877 242.625 109.446 246.148 109.446 246.148C109.446 246.148 111.877 258.833 105.193 260.947Z" fill="#2F2E41"/>
<path d="M127.067 65.7488C134.784 65.7488 141.041 58.4923 141.041 49.541C141.041 40.5897 134.784 33.3332 127.067 33.3332C119.349 33.3332 113.092 40.5897 113.092 49.541C113.092 58.4923 119.349 65.7488 127.067 65.7488Z" fill="#FFB8B8"/>
<path d="M129.193 77.3761L120.687 69.6245L100.029 80.8995L99.4212 145.026C99.4212 145.026 86.6619 152.073 90.3074 161.234C90.3074 161.234 101.244 164.053 106.105 169.69C110.965 175.328 138.307 167.576 149.851 163.348C161.395 159.12 164.433 154.187 164.433 154.187L152.889 135.16L159.573 86.537L138.917 70.4304L129.193 77.3761Z" fill="#E6E6E6"/>
<path d="M144.056 38.5096C143.752 38.0304 143.473 37.5296 143.223 37.01C142.79 35.786 143.474 34.3436 142.835 33.2006C142.182 32.0339 140.524 31.7878 139.397 30.9952C137.659 29.7742 137.344 27.3782 135.716 26.0326C134.543 25.0631 132.871 24.8018 131.304 24.8571C129.737 24.9124 128.191 25.241 126.623 25.277C124.507 25.3318 122.407 24.8338 120.48 23.8199L121.636 26.4438C120.351 26.1189 119.123 25.5417 118.006 24.7371C117.494 25.4729 118.43 26.5898 117.85 27.2801C117.612 27.5027 117.331 27.654 117.031 27.7207C114.8 28.4559 112.699 29.6444 110.827 31.2309C110.393 31.5507 110.035 31.9898 109.783 32.5091C109.482 33.2839 109.749 34.1397 109.726 34.9635C109.685 36.4604 108.699 37.7658 108 39.1143C107.301 40.4628 106.923 42.2111 107.96 43.3556C108.213 43.5881 108.454 43.8354 108.685 44.0967C109.724 45.5181 107.885 47.5998 108.771 49.1082C109.156 49.7632 109.945 50.0946 110.631 50.4815C111.944 51.1937 113.049 52.3359 113.81 53.7675L113.277 49.2305C113.249 49.1184 113.244 49.0002 113.262 48.8855C113.28 48.7707 113.322 48.6625 113.383 48.5696C113.641 48.2645 114.181 48.3861 114.538 48.184C114.93 47.9617 114.959 47.4517 114.944 47.0245L114.824 43.7305C114.77 42.2493 114.755 42.0526 115.696 40.857C116.353 40.0217 117.386 39.5177 118.425 39.147C120.797 38.3 123.349 38.0071 125.872 37.7208C128.801 37.3883 132.1 35.7398 134.375 37.4901C136.237 38.9228 136.856 41.2779 137.753 43.3665C138.56 45.2439 140.63 50.7714 142.353 47.7793C143.435 45.9002 145.09 40.6018 144.056 38.5096Z" fill="#2F2E41"/>
<path d="M129.466 44.8393C129.408 44.8394 129.353 44.8659 129.312 44.9131C129.271 44.9603 129.248 45.0243 129.248 45.0911V51.8769C129.248 51.9437 129.271 52.0076 129.312 52.0548C129.353 52.102 129.408 52.1286 129.466 52.1286H139.537C139.595 52.1286 139.65 52.102 139.691 52.0548C139.732 52.0076 139.755 51.9437 139.755 51.8769V45.0911C139.755 45.0243 139.732 44.9603 139.691 44.9131C139.65 44.8659 139.595 44.8394 139.537 44.8393L129.466 44.8393Z" fill="#3F3D56"/>
<path d="M130.591 45.4378C130.484 45.4379 130.381 45.4874 130.305 45.5754C130.229 45.6634 130.187 45.7826 130.186 45.907V51.0609C130.187 51.1853 130.229 51.3046 130.305 51.3926C130.381 51.4806 130.484 51.5301 130.591 51.5302H138.412C138.519 51.5301 138.622 51.4806 138.698 51.3926C138.774 51.3046 138.816 51.1853 138.816 51.0609V45.907C138.816 45.7826 138.774 45.6634 138.698 45.5754C138.622 45.4874 138.519 45.4379 138.412 45.4378H130.591Z" fill="#FF6584"/>
<path d="M129.579 47.0746H124.332V48.484H129.579V47.0746Z" fill="#3F3D56"/>
<path d="M115.203 44.8393C115.146 44.8394 115.09 44.866 115.05 44.9132C115.009 44.9604 114.986 45.0243 114.986 45.0911V51.8769C114.986 51.9436 115.009 52.0076 115.05 52.0548C115.09 52.102 115.146 52.1285 115.203 52.1286H125.275C125.333 52.1285 125.388 52.102 125.429 52.0548C125.469 52.0076 125.492 51.9436 125.492 51.8769V45.0911C125.492 45.0243 125.469 44.9604 125.429 44.9132C125.388 44.866 125.333 44.8394 125.275 44.8393L115.203 44.8393Z" fill="#3F3D56"/>
<path d="M116.329 45.4378C116.222 45.4379 116.119 45.4873 116.043 45.5753C115.967 45.6633 115.924 45.7826 115.924 45.907V51.0609C115.924 51.1854 115.967 51.3047 116.043 51.3927C116.119 51.4806 116.222 51.5301 116.329 51.5302H124.149C124.257 51.5301 124.36 51.4806 124.435 51.3927C124.511 51.3047 124.554 51.1854 124.554 51.0609V45.907C124.554 45.7826 124.511 45.6633 124.435 45.5753C124.36 45.4873 124.257 45.4379 124.149 45.4378H116.329Z" fill="white"/>
<path d="M109.697 129.541H144.584C145.976 129.541 147.312 130.183 148.297 131.325C149.282 132.468 149.835 134.017 149.835 135.632V135.632H104.446C104.446 134.017 104.999 132.468 105.984 131.325C106.969 130.183 108.305 129.541 109.697 129.541V129.541Z" fill="#3F3D56"/>
<path d="M147.022 129.106C146.818 129.107 146.615 129.147 146.422 129.225C146.356 128.916 146.194 128.646 145.968 128.465C145.742 128.285 145.467 128.207 145.194 128.246C144.922 128.285 144.671 128.438 144.49 128.677C144.308 128.915 144.208 129.223 144.208 129.541C144.208 129.548 144.21 129.554 144.21 129.56C144.069 129.576 143.93 129.609 143.796 129.66C143.758 129.484 143.689 129.32 143.593 129.176C143.497 129.033 143.377 128.915 143.24 128.828C143.6 128.597 143.886 128.235 144.052 127.798C144.262 127.822 144.475 127.795 144.677 127.717C144.878 127.64 145.062 127.514 145.219 127.348C145.375 127.182 145.5 126.98 145.584 126.754C145.668 126.529 145.711 126.285 145.709 126.039C145.707 125.793 145.66 125.551 145.571 125.328C145.483 125.104 145.355 124.905 145.196 124.743C145.037 124.581 144.85 124.459 144.647 124.386C144.445 124.314 144.231 124.291 144.021 124.32C143.817 124.322 143.614 124.362 143.421 124.439C143.386 124.268 143.322 124.107 143.232 123.965C143.142 123.824 143.029 123.705 142.898 123.615C142.768 123.526 142.623 123.469 142.473 123.446C142.322 123.424 142.17 123.437 142.024 123.485C141.878 123.532 141.742 123.614 141.624 123.724C141.506 123.835 141.409 123.972 141.338 124.127C141.267 124.282 141.224 124.453 141.211 124.628C141.199 124.803 141.217 124.979 141.264 125.146C141.22 125.182 141.178 125.223 141.136 125.263C140.924 125.051 140.648 124.945 140.369 124.967C140.224 124.487 139.939 124.08 139.562 123.819C139.186 123.559 138.742 123.46 138.309 123.54C137.876 123.621 137.481 123.875 137.193 124.259C136.906 124.644 136.744 125.133 136.736 125.642C136.586 125.656 136.437 125.69 136.294 125.744C136.278 125.671 136.256 125.599 136.229 125.529C136.377 125.378 136.496 125.192 136.578 124.984C136.66 124.775 136.704 124.55 136.706 124.32C136.68 123.831 136.487 123.373 136.171 123.047C135.855 122.721 135.44 122.553 135.018 122.58C134.814 122.581 134.611 122.621 134.418 122.699C134.383 122.528 134.319 122.366 134.229 122.225C134.14 122.083 134.026 121.964 133.895 121.875C133.765 121.786 133.62 121.728 133.47 121.706C133.319 121.683 133.167 121.696 133.021 121.744C132.875 121.792 132.739 121.874 132.621 121.984C132.504 122.094 132.406 122.231 132.335 122.387C132.264 122.542 132.221 122.712 132.208 122.887C132.196 123.063 132.214 123.239 132.262 123.406C132.025 123.596 131.83 123.847 131.691 124.139C131.552 124.431 131.473 124.756 131.46 125.089C131.444 125.105 131.426 125.119 131.411 125.136C131.439 125.012 131.453 124.884 131.454 124.756C131.428 124.266 131.236 123.808 130.92 123.482C130.603 123.156 130.189 122.988 129.766 123.015C129.562 123.016 129.359 123.056 129.166 123.134C129.132 122.963 129.068 122.801 128.978 122.66C128.888 122.518 128.774 122.399 128.644 122.31C128.513 122.221 128.368 122.164 128.218 122.141C128.068 122.118 127.915 122.132 127.769 122.179C127.624 122.227 127.488 122.309 127.37 122.419C127.252 122.53 127.154 122.667 127.083 122.822C127.012 122.977 126.969 123.147 126.957 123.323C126.944 123.498 126.962 123.674 127.01 123.841C126.761 124.04 126.557 124.307 126.417 124.618C126.276 124.929 126.203 125.275 126.203 125.626C126.203 125.977 126.276 126.323 126.417 126.633C126.557 126.944 126.761 127.211 127.01 127.411C126.934 127.663 126.934 127.939 127.01 128.191C126.822 128.344 126.659 128.534 126.53 128.753C126.46 128.461 126.305 128.206 126.09 128.033C125.876 127.86 125.616 127.78 125.355 127.806C125.095 127.832 124.851 127.963 124.665 128.176C124.479 128.389 124.364 128.671 124.339 128.973C124.188 128.871 124.026 128.795 123.856 128.747C124.16 128.514 124.399 128.185 124.545 127.798C124.756 127.822 124.969 127.795 125.17 127.717C125.371 127.64 125.556 127.514 125.712 127.348C125.869 127.182 125.993 126.98 126.078 126.754C126.162 126.529 126.205 126.285 126.203 126.039C126.2 125.793 126.154 125.551 126.065 125.328C125.977 125.104 125.849 124.905 125.689 124.743C125.53 124.581 125.343 124.459 125.141 124.386C124.938 124.314 124.725 124.291 124.515 124.32C124.31 124.322 124.108 124.362 123.915 124.439C123.88 124.268 123.816 124.107 123.726 123.965C123.636 123.824 123.523 123.705 123.392 123.615C123.261 123.526 123.117 123.469 122.966 123.446C122.816 123.424 122.663 123.437 122.518 123.485C122.372 123.532 122.236 123.614 122.118 123.724C122 123.835 121.903 123.972 121.832 124.127C121.761 124.282 121.718 124.453 121.705 124.628C121.692 124.803 121.71 124.979 121.758 125.146C121.734 125.165 121.712 125.188 121.689 125.209C121.631 125.203 121.574 125.191 121.514 125.191C121.309 125.192 121.107 125.232 120.914 125.309C120.907 125.276 120.895 125.246 120.886 125.214C120.922 125.02 120.919 124.82 120.877 124.627C120.835 124.435 120.756 124.257 120.644 124.106C120.533 123.956 120.393 123.838 120.236 123.761C120.078 123.683 119.908 123.65 119.737 123.662C119.639 123.346 119.48 123.061 119.272 122.829C119.063 122.597 118.811 122.424 118.536 122.323C118.26 122.223 117.968 122.197 117.682 122.25C117.397 122.302 117.126 122.43 116.89 122.623C116.654 122.817 116.46 123.072 116.323 123.367C116.186 123.662 116.11 123.99 116.101 124.325C116.091 124.66 116.149 124.993 116.269 125.298C116.389 125.603 116.568 125.872 116.792 126.083C116.663 126.1 116.536 126.133 116.412 126.179C116.368 125.967 116.278 125.771 116.151 125.61C116.024 125.45 115.864 125.328 115.685 125.259C115.507 125.189 115.316 125.172 115.131 125.211C114.946 125.25 114.772 125.342 114.626 125.479C114.459 125.249 114.25 125.065 114.014 124.94C113.778 124.814 113.52 124.752 113.261 124.756C113.057 124.757 112.854 124.797 112.661 124.874C112.626 124.703 112.562 124.542 112.472 124.4C112.383 124.259 112.269 124.14 112.138 124.051C112.008 123.961 111.863 123.904 111.713 123.881C111.563 123.859 111.41 123.872 111.264 123.92C111.118 123.967 110.982 124.049 110.864 124.159C110.747 124.27 110.649 124.407 110.578 124.562C110.507 124.717 110.464 124.888 110.451 125.063C110.439 125.238 110.457 125.414 110.505 125.581C110.256 125.781 110.052 126.047 109.911 126.358C109.771 126.669 109.697 127.015 109.697 127.366C109.697 127.373 109.699 127.379 109.699 127.386C109.433 127.339 109.161 127.373 108.91 127.484C108.875 127.313 108.811 127.152 108.721 127.011C108.631 126.869 108.518 126.75 108.387 126.661C108.257 126.572 108.112 126.514 107.962 126.492C107.811 126.469 107.659 126.482 107.513 126.53C107.367 126.578 107.231 126.659 107.113 126.77C106.995 126.88 106.898 127.017 106.827 127.172C106.756 127.328 106.713 127.498 106.7 127.673C106.688 127.848 106.706 128.025 106.753 128.191C106.392 128.475 106.127 128.898 106.006 129.384C105.885 129.871 105.914 130.392 106.09 130.856C106.265 131.32 106.576 131.698 106.967 131.924C107.358 132.15 107.804 132.21 108.23 132.094C108.297 132.548 108.488 132.965 108.774 133.285C109.06 133.604 109.426 133.81 109.82 133.872C110.213 133.934 110.614 133.849 110.963 133.63C111.312 133.41 111.591 133.067 111.761 132.65C113.112 132.854 114.483 132.782 115.813 132.439C115.937 132.851 116.166 133.21 116.468 133.469C116.771 133.728 117.135 133.875 117.511 133.891C117.887 133.906 118.258 133.79 118.576 133.557C118.894 133.323 119.144 132.984 119.294 132.584C119.567 132.577 119.836 132.5 120.08 132.358C120.252 132.709 120.504 132.997 120.809 133.191C121.114 133.384 121.459 133.475 121.806 133.454C122.153 133.432 122.488 133.298 122.773 133.068C123.058 132.837 123.282 132.519 123.42 132.149C123.837 132.057 124.269 132.137 124.64 132.376C125.011 132.615 125.299 132.998 125.452 133.457C125.703 133.059 126.026 132.729 126.398 132.49C126.77 132.251 127.183 132.109 127.607 132.074C127.984 132.196 128.385 132.174 128.75 132.012C129.116 131.85 129.427 131.557 129.638 131.174C129.52 131.704 129.579 132.266 129.802 132.748C130.026 133.23 130.398 133.596 130.844 133.774C131.29 133.952 131.778 133.928 132.209 133.707C132.641 133.487 132.985 133.085 133.173 132.584C133.447 132.577 133.715 132.5 133.96 132.358C134.131 132.709 134.383 132.997 134.688 133.191C134.993 133.384 135.338 133.475 135.686 133.454C136.033 133.432 136.368 133.298 136.653 133.068C136.938 132.837 137.162 132.519 137.299 132.149C137.573 132.142 137.842 132.065 138.086 131.923C138.218 132.195 138.4 132.431 138.618 132.614C138.837 132.797 139.087 132.923 139.352 132.982C139.616 133.042 139.889 133.034 140.15 132.959C140.412 132.884 140.657 132.743 140.867 132.548C140.932 132.964 141.101 133.349 141.352 133.655C141.604 133.961 141.927 134.175 142.282 134.271C142.638 134.367 143.009 134.339 143.351 134.193C143.694 134.046 143.991 133.787 144.208 133.446C144.433 133.646 144.694 133.784 144.972 133.849C145.25 133.914 145.537 133.905 145.812 133.822C146.086 133.738 146.341 133.584 146.556 133.369C146.771 133.155 146.941 132.886 147.052 132.584C147.263 132.608 147.476 132.58 147.677 132.503C147.879 132.425 148.063 132.299 148.22 132.133C148.376 131.968 148.5 131.765 148.585 131.54C148.669 131.314 148.712 131.071 148.71 130.825C148.708 130.579 148.661 130.337 148.572 130.113C148.484 129.89 148.356 129.691 148.197 129.528C148.037 129.366 147.85 129.245 147.648 129.172C147.446 129.099 147.232 129.077 147.022 129.106L147.022 129.106ZM113.494 128.208C113.492 128.219 113.491 128.23 113.489 128.24C113.475 128.24 113.462 128.236 113.449 128.236C113.393 128.238 113.337 128.244 113.281 128.256C113.284 128.248 113.289 128.241 113.292 128.233C113.36 128.229 113.427 128.221 113.494 128.208V128.208ZM129.166 127.484C129.161 127.459 129.152 127.436 129.145 127.411C129.431 127.181 129.657 126.863 129.797 126.493C130.044 126.491 130.287 126.429 130.512 126.311C130.737 126.193 130.937 126.022 131.101 125.808C131.087 125.891 131.079 125.976 131.079 126.061C131.081 126.194 131.1 126.325 131.136 126.451C130.814 126.712 130.57 127.082 130.439 127.511C130.031 127.327 129.58 127.318 129.166 127.484V127.484ZM140.401 127.647C140.401 127.62 140.403 127.592 140.402 127.566C140.45 127.566 140.498 127.562 140.545 127.555C140.618 127.836 140.739 128.098 140.902 128.323C140.867 128.334 140.83 128.341 140.795 128.355C140.735 128.075 140.596 127.826 140.401 127.647V127.647Z" fill="#F9A825"/>
<path d="M108.224 131.717C107.692 131.717 107.166 131.842 106.677 132.086C106.188 132.33 105.747 132.687 105.381 133.134C105.015 133.582 104.732 134.112 104.548 134.691C104.364 135.27 104.285 135.887 104.313 136.503L106.853 177.015C106.907 178.176 107.342 179.269 108.07 180.069C108.798 180.869 109.762 181.314 110.764 181.314H143.516C144.519 181.314 145.483 180.869 146.211 180.069C146.939 179.269 147.374 178.176 147.428 177.015L149.968 136.503C149.996 135.887 149.916 135.27 149.733 134.691C149.549 134.112 149.266 133.582 148.9 133.134C148.534 132.687 148.093 132.33 147.604 132.086C147.115 131.842 146.589 131.717 146.057 131.717H108.224Z" fill="#3F3D56"/>
<path d="M112.323 131.717H110.073V181.314H112.323V131.717Z" fill="white"/>
<path d="M118.7 131.717H116.45V181.314H118.7V131.717Z" fill="white"/>
<path d="M125.077 131.717H122.827V181.314H125.077V131.717Z" fill="white"/>
<path d="M131.454 131.717H129.204V181.314H131.454V131.717Z" fill="white"/>
<path d="M137.831 131.717H135.581V181.314H137.831V131.717Z" fill="white"/>
<path d="M144.208 131.717H141.958V181.314H144.208V131.717Z" fill="white"/>
<path d="M141.952 156.301L134.661 161.234C134.661 161.234 117.041 178.146 129.193 180.965C141.345 183.784 144.383 168.985 144.383 168.985L148.636 163.348L141.952 156.301Z" fill="#FFB8B8"/>
<path d="M107.32 152.778L114.611 157.71C114.611 157.71 132.231 174.623 120.079 177.442C107.927 180.26 104.889 165.462 104.889 165.462L100.636 159.824L107.32 152.778Z" fill="#FFB8B8"/>
<path d="M151.674 85.8323L159.573 86.537C159.573 86.537 165.648 92.8792 165.041 101.335C165.041 101.335 170.509 119.657 169.294 127.409C169.294 127.409 170.509 140.093 168.686 145.026C166.864 149.959 151.674 168.985 151.674 168.985C151.674 168.985 137.699 156.301 138.307 155.596L156.535 134.456L147.421 120.362L151.674 85.8323Z" fill="#E6E6E6"/>
<path d="M100.029 80.8995L99.725 81.2519C99.725 81.2519 86.0543 87.9464 86.6619 96.4026C86.6619 96.4026 81.1936 114.724 82.4088 122.476C82.4088 122.476 81.1936 135.16 83.0163 140.093C84.8391 145.026 100.029 164.053 100.029 164.053C100.029 164.053 114.003 151.368 113.396 150.664L95.1681 129.523L104.282 115.429L100.029 80.8995Z" fill="#E6E6E6"/>
</g>
<defs>
<clipPath id="clip0_44_19">
<rect width="270" height="299" fill="white" transform="translate(4)"/>
</clipPath>
</defs>
</svg>
