<svg width="28" height="22" viewBox="0 0 28 22" fill="none" xmlns="http://www.w3.org/2000/svg">
<path d="M4.78686 12.7324L4.96899 12.5824L13.2007 5.80258L13.5186 6.1885L13.2048 5.79924C13.3904 5.64961 13.6217 5.56801 13.8601 5.56801C14.0986 5.56801 14.3298 5.64961 14.5155 5.79924L14.5195 5.80248L14.5195 5.8025L22.7494 12.5774L22.9316 12.7274V12.9634V20.2856C22.9316 20.6077 22.8037 20.9166 22.576 21.1443C22.3482 21.3721 22.0393 21.5 21.7173 21.5H21.7159L16.7158 21.4862C16.7156 21.4862 16.7153 21.4862 16.715 21.4862L16.7144 21.4862L16.7158 20.9862C16.6218 20.9862 16.5287 20.9676 16.4419 20.9316C16.3551 20.8955 16.2763 20.8427 16.2099 20.7761C16.1435 20.7096 16.091 20.6306 16.0552 20.5436C16.0194 20.4567 16.0012 20.3636 16.0015 20.2696L4.78686 12.7324ZM4.78686 12.7324V12.9683V20.2856C4.78686 20.6077 4.9148 20.9166 5.14254 21.1443C5.37028 21.3721 5.67916 21.5 6.00123 21.5L6.00252 21.5L11.0058 21.4871L11.007 21.487C11.328 21.4854 11.6353 21.3568 11.8617 21.1292C12.0882 20.9017 12.2153 20.5937 12.2153 20.2727V15.9994C12.2153 15.9426 12.2378 15.8881 12.278 15.8479C12.3182 15.8077 12.3728 15.7851 12.4296 15.7851H15.2871C15.3439 15.7851 15.3985 15.8077 15.4387 15.8479C15.4789 15.8881 15.5015 15.9426 15.5015 15.9994V20.2687L4.78686 12.7324ZM12.1784 1.10281L12.1783 1.10294L0.876578 10.4107L0.875899 10.4112C0.771016 10.4979 0.684242 10.6044 0.620535 10.7247C0.556827 10.8449 0.517436 10.9765 0.504611 11.112C0.491786 11.2474 0.505778 11.3841 0.545789 11.5142C0.585699 11.6439 0.650716 11.7645 0.737138 11.8692C0.737357 11.8694 0.737576 11.8697 0.737795 11.8699L1.87535 13.2529C1.87536 13.2529 1.87537 13.2529 1.87538 13.2529C1.96189 13.3581 2.06829 13.4452 2.18849 13.5092C2.30871 13.5732 2.44038 13.6129 2.57595 13.6259C2.71153 13.639 2.84835 13.6252 2.97858 13.5853C3.10881 13.5455 3.22989 13.4803 3.3349 13.3936C3.33491 13.3936 3.33492 13.3936 3.33492 13.3935L13.8333 4.74652C13.841 4.74064 13.8504 4.73745 13.8601 4.73745C13.8699 4.73745 13.8793 4.74064 13.887 4.74652C13.8873 4.74676 13.8876 4.747 13.8879 4.74725L24.3854 13.3932C24.3855 13.3933 24.3856 13.3934 24.3856 13.3934C24.4904 13.4801 24.6113 13.5453 24.7412 13.5853C24.8713 13.6253 25.0079 13.6393 25.1434 13.6264C25.2789 13.6136 25.4105 13.5742 25.5307 13.5105C25.651 13.4468 25.7575 13.36 25.8442 13.2551L25.8449 13.2542L26.9834 11.8702L26.9836 11.87C27.0702 11.7646 27.1352 11.643 27.1747 11.5124C27.2143 11.3818 27.2276 11.2446 27.214 11.1088C27.2003 10.973 27.16 10.8413 27.0953 10.7211C27.0309 10.6016 26.9436 10.4958 26.8384 10.4099C26.8378 10.4095 26.8373 10.4091 26.8368 10.4087L23.2888 7.48412V1.53577C23.2888 1.26107 23.1797 0.997617 22.9854 0.803371C22.7912 0.609126 22.5277 0.5 22.253 0.5H19.7528C19.4781 0.5 19.2146 0.609126 19.0204 0.803371C18.8261 0.997617 18.717 1.26107 18.717 1.53577V3.71881L15.5374 1.10281C15.5374 1.1028 15.5374 1.10279 15.5373 1.10278C15.0642 0.713481 14.4706 0.500631 13.8579 0.500631C13.2452 0.500631 12.6515 0.713492 12.1784 1.10281Z" stroke="#FFF3F3"/>
</svg>
