<svg width="25" height="25" viewBox="0 0 25 25" fill="none" xmlns="http://www.w3.org/2000/svg">
<path d="M9.70398 19.2372L9.704 19.2373L9.70955 19.2341L18.5776 14.145C19.7432 13.495 19.7404 11.8177 18.5845 11.1613L9.72043 5.77236L9.71172 5.76706L9.70281 5.76213C8.57302 5.13684 7.16129 5.9442 7.16129 7.25806V17.7419C7.16129 19.0625 8.58012 19.8632 9.70398 19.2372ZM0.5 12.5C0.5 5.8709 5.8709 0.5 12.5 0.5C19.1291 0.5 24.5 5.8709 24.5 12.5C24.5 19.1291 19.1291 24.5 12.5 24.5C5.8709 24.5 0.5 19.1291 0.5 12.5Z" stroke="#FFFCFC"/>
</svg>
